<?xml version="1.0" encoding="UTF-8" standalone="no"?>
<?xml-stylesheet href="style.css" type="text/css"?>
<!DOCTYPE svg PUBLIC "-//W3C//DTD SVG 1.1//EN"
 "http://www.w3.org/Graphics/SVG/1.1/DTD/svg11.dtd">
<!-- Generated by graphviz version 2.43.0 (0)
 -->
<!-- Title: b Pages: 1 -->
<svg width="931pt" height="374pt"
 viewBox="0.00 0.00 930.50 374.00" xmlns="http://www.w3.org/2000/svg" xmlns:xlink="http://www.w3.org/1999/xlink">
<g id="graph0" class="graph" transform="scale(1 1) rotate(0) translate(4 370)">
<title>b</title>
<polygon fill="white" stroke="transparent" points="-4,4 -4,-370 926.5,-370 926.5,4 -4,4"/>
<!-- r0 -->
<g id="node1" class="node">
<title>r0</title>
<polygon fill="none" stroke="black" stroke-dasharray="5,2" points="692,-366 669,-366 669,-348 692,-348 692,-366"/>
<text text-anchor="middle" x="680.5" y="-354.8" font-family="serif" font-size="9.00">0</text>
</g>
<!-- v0 -->
<g id="v0_Boundary" class="node">
<title>v0</title>
<ellipse fill="none" stroke="black" cx="680.5" cy="-301" rx="36" ry="11"/>
<text text-anchor="middle" x="680.5" y="-298.8" font-family="sans-serif" font-size="9.00">Boundary</text>
</g>
<!-- r0&#45;&gt;v0 -->
<g id="edge1" class="edge">
<title>r0&#45;&gt;v0</title>
<path fill="none" stroke="black" d="M680.5,-347.56C680.5,-339.45 680.5,-327.01 680.5,-317.18"/>
<polygon fill="black" stroke="black" points="680.5,-312.03 682.75,-317.03 680.5,-314.53 680.5,-317.03 680.5,-317.03 680.5,-317.03 680.5,-314.53 678.25,-317.03 680.5,-312.03 680.5,-312.03"/>
</g>
<!-- e0 -->
<g id="node2" class="node">
<title>e0</title>
</g>
<!-- v8 -->
<g id="v8_Agent" class="node">
<title>v8</title>
<ellipse fill="none" stroke="black" cx="735.5" cy="-69" rx="25" ry="11"/>
<text text-anchor="middle" x="735.5" y="-66.8" font-family="sans-serif" font-size="9.00">Agent</text>
</g>
<!-- e0&#45;&gt;v8 -->
<g id="edge15" class="edge">
<title>e0&#45;&gt;v8</title>
<path fill="none" stroke="green" d="M735.5,-122.17C735.5,-113.59 735.5,-92.6 735.5,-80.01"/>
<polygon fill="green" stroke="green" points="739,-125.3 732,-125.3 732,-123.9 739,-123.9 739,-125.3"/>
<polyline fill="none" stroke="green" points="735.5,-126 735.5,-122.5 "/>
</g>
<!-- v1 -->
<g id="v1_ID(6&#45;180837&#45;Cambridgeshire)" class="node">
<title>v1</title>
<ellipse fill="none" stroke="black" cx="104.5" cy="-11" rx="104.5" ry="11"/>
<text text-anchor="middle" x="104.5" y="-8.8" font-family="sans-serif" font-size="9.00">ID(6&#45;180837&#45;Cambridgeshire)</text>
</g>
<!-- v0&#45;&gt;v1 -->
<g id="edge2" class="edge">
<title>v0&#45;&gt;v1</title>
<path fill="none" stroke="black" d="M644.47,-300.57C518.37,-301.61 104.5,-296.6 104.5,-186 104.5,-186 104.5,-186 104.5,-126 104.5,-90.6 104.5,-49.03 104.5,-27.18"/>
<polygon fill="black" stroke="black" points="104.5,-22.06 106.75,-27.06 104.5,-24.56 104.5,-27.06 104.5,-27.06 104.5,-27.06 104.5,-24.56 102.25,-27.06 104.5,-22.06 104.5,-22.06"/>
</g>
<!-- v2 -->
<g id="v2_Boundary" class="node">
<title>v2</title>
<ellipse fill="none" stroke="black" cx="680.5" cy="-243" rx="36" ry="11"/>
<text text-anchor="middle" x="680.5" y="-240.8" font-family="sans-serif" font-size="9.00">Boundary</text>
</g>
<!-- v0&#45;&gt;v2 -->
<g id="edge3" class="edge">
<title>v0&#45;&gt;v2</title>
<path fill="none" stroke="black" d="M680.5,-289.99C680.5,-281.49 680.5,-269.17 680.5,-259.42"/>
<polygon fill="black" stroke="black" points="680.5,-254.3 682.75,-259.3 680.5,-256.8 680.5,-259.3 680.5,-259.3 680.5,-259.3 680.5,-256.8 678.25,-259.3 680.5,-254.3 680.5,-254.3"/>
</g>
<!-- s0 -->
<g id="node13" class="node">
<title>s0</title>
<polygon fill="gray" stroke="black" stroke-dasharray="5,2" points="884,-78 861,-78 861,-60 884,-60 884,-78"/>
<text text-anchor="middle" x="872.5" y="-66.8" font-family="serif" font-size="9.00">0</text>
</g>
<!-- v0&#45;&gt;s0 -->
<g id="edge11" class="edge">
<title>v0&#45;&gt;s0</title>
<path fill="none" stroke="black" d="M690.45,-290.4C699.77,-281.28 713.95,-267.05 725.5,-254 780.5,-191.83 840.71,-112.55 863.28,-82.39"/>
<polygon fill="black" stroke="black" points="866.34,-78.31 865.14,-83.66 864.84,-80.31 863.34,-82.31 863.34,-82.31 863.34,-82.31 864.84,-80.31 861.54,-80.97 866.34,-78.31 866.34,-78.31"/>
</g>
<!-- v3 -->
<g id="v3_ID(8&#45;295355&#45;Cambridge)" class="node">
<title>v3</title>
<ellipse fill="none" stroke="black" cx="313.5" cy="-11" rx="86.5" ry="11"/>
<text text-anchor="middle" x="313.5" y="-8.8" font-family="sans-serif" font-size="9.00">ID(8&#45;295355&#45;Cambridge)</text>
</g>
<!-- v2&#45;&gt;v3 -->
<g id="edge4" class="edge">
<title>v2&#45;&gt;v3</title>
<path fill="none" stroke="black" d="M665.66,-232.7C608.17,-196.67 400.05,-66.24 333.86,-24.76"/>
<polygon fill="black" stroke="black" points="329.34,-21.93 334.78,-22.68 331.46,-23.26 333.58,-24.59 333.58,-24.59 333.58,-24.59 331.46,-23.26 332.39,-26.49 329.34,-21.93 329.34,-21.93"/>
</g>
<!-- v4 -->
<g id="v4_Street" class="node">
<title>v4</title>
<ellipse fill="none" stroke="black" cx="680.5" cy="-185" rx="29" ry="11"/>
<text text-anchor="middle" x="680.5" y="-182.8" font-family="sans-serif" font-size="9.00">Street</text>
</g>
<!-- v2&#45;&gt;v4 -->
<g id="edge5" class="edge">
<title>v2&#45;&gt;v4</title>
<path fill="none" stroke="black" d="M680.5,-231.99C680.5,-223.49 680.5,-211.17 680.5,-201.42"/>
<polygon fill="black" stroke="black" points="680.5,-196.3 682.75,-201.3 680.5,-198.8 680.5,-201.3 680.5,-201.3 680.5,-201.3 680.5,-198.8 678.25,-201.3 680.5,-196.3 680.5,-196.3"/>
</g>
<!-- s1 -->
<g id="node14" class="node">
<title>s1</title>
<polygon fill="gray" stroke="black" stroke-dasharray="5,2" points="843,-78 820,-78 820,-60 843,-60 843,-78"/>
<text text-anchor="middle" x="831.5" y="-66.8" font-family="serif" font-size="9.00">1</text>
</g>
<!-- v2&#45;&gt;s1 -->
<g id="edge12" class="edge">
<title>v2&#45;&gt;s1</title>
<path fill="none" stroke="black" d="M689.05,-232.26C714.96,-202.74 792.58,-114.33 820.96,-82.01"/>
<polygon fill="black" stroke="black" points="824.47,-78 822.87,-83.24 822.83,-79.88 821.18,-81.76 821.18,-81.76 821.18,-81.76 822.83,-79.88 819.48,-80.28 824.47,-78 824.47,-78"/>
</g>
<!-- v5 -->
<g id="v5_ID(J J Thompson Avenue)" class="node">
<title>v5</title>
<ellipse fill="none" stroke="black" cx="508.5" cy="-11" rx="90" ry="11"/>
<text text-anchor="middle" x="508.5" y="-8.8" font-family="sans-serif" font-size="9.00">ID(J J Thompson Avenue)</text>
</g>
<!-- v4&#45;&gt;v5 -->
<g id="edge6" class="edge">
<title>v4&#45;&gt;v5</title>
<path fill="none" stroke="black" d="M671.01,-174.51C642.31,-145.81 556.38,-59.88 522.47,-25.97"/>
<polygon fill="black" stroke="black" points="518.61,-22.11 523.73,-24.05 520.37,-23.87 522.14,-25.64 522.14,-25.64 522.14,-25.64 520.37,-23.87 520.55,-27.23 518.61,-22.11 518.61,-22.11"/>
</g>
<!-- v6 -->
<g id="v6_Building" class="node">
<title>v6</title>
<ellipse fill="none" stroke="black" cx="680.5" cy="-127" rx="36" ry="11"/>
<text text-anchor="middle" x="680.5" y="-124.8" font-family="sans-serif" font-size="9.00">Building</text>
</g>
<!-- v4&#45;&gt;v6 -->
<g id="edge7" class="edge">
<title>v4&#45;&gt;v6</title>
<path fill="none" stroke="black" d="M680.5,-173.99C680.5,-165.49 680.5,-153.17 680.5,-143.42"/>
<polygon fill="black" stroke="black" points="680.5,-138.3 682.75,-143.3 680.5,-140.8 680.5,-143.3 680.5,-143.3 680.5,-143.3 680.5,-140.8 678.25,-143.3 680.5,-138.3 680.5,-138.3"/>
</g>
<!-- s2 -->
<g id="node15" class="node">
<title>s2</title>
<polygon fill="gray" stroke="black" stroke-dasharray="5,2" points="802,-78 779,-78 779,-60 802,-60 802,-78"/>
<text text-anchor="middle" x="790.5" y="-66.8" font-family="serif" font-size="9.00">2</text>
</g>
<!-- v4&#45;&gt;s2 -->
<g id="edge13" class="edge">
<title>v4&#45;&gt;s2</title>
<path fill="none" stroke="black" d="M695.36,-175.43C709.11,-167.04 729.62,-153.31 744.5,-138 761.1,-120.92 775.63,-97.16 783.72,-82.72"/>
<polygon fill="black" stroke="black" points="786.21,-78.21 785.76,-83.67 785,-80.4 783.79,-82.59 783.79,-82.59 783.79,-82.59 785,-80.4 781.82,-81.5 786.21,-78.21 786.21,-78.21"/>
</g>
<!-- v7 -->
<g id="v7_ID(8388&#45;William Gates Building)" class="node">
<title>v7</title>
<ellipse fill="none" stroke="black" cx="735.5" cy="-11" rx="119" ry="11"/>
<text text-anchor="middle" x="735.5" y="-8.8" font-family="sans-serif" font-size="9.00">ID(8388&#45;William Gates Building)</text>
</g>
<!-- v6&#45;&gt;v7 -->
<g id="edge8" class="edge">
<title>v6&#45;&gt;v7</title>
<path fill="none" stroke="black" d="M672.83,-116.24C663.07,-102.55 648.7,-77.16 659.5,-58 668.42,-42.17 685.23,-31.17 700.77,-23.9"/>
<polygon fill="black" stroke="black" points="705.55,-21.77 701.9,-25.86 703.26,-22.79 700.98,-23.81 700.98,-23.81 700.98,-23.81 703.26,-22.79 700.06,-21.76 705.55,-21.77 705.55,-21.77"/>
</g>
<!-- v6&#45;&gt;v8 -->
<g id="edge9" class="edge">
<title>v6&#45;&gt;v8</title>
<path fill="none" stroke="black" d="M690.08,-116.25C699.1,-107.06 712.68,-93.24 722.64,-83.1"/>
<polygon fill="black" stroke="black" points="726.39,-79.27 724.5,-84.41 724.64,-81.05 722.89,-82.84 722.89,-82.84 722.89,-82.84 724.64,-81.05 721.29,-81.26 726.39,-79.27 726.39,-79.27"/>
</g>
<!-- s3 -->
<g id="node16" class="node">
<title>s3</title>
<polygon fill="gray" stroke="black" stroke-dasharray="5,2" points="692,-78 669,-78 669,-60 692,-60 692,-78"/>
<text text-anchor="middle" x="680.5" y="-66.8" font-family="serif" font-size="9.00">3</text>
</g>
<!-- v6&#45;&gt;s3 -->
<g id="edge14" class="edge">
<title>v6&#45;&gt;s3</title>
<path fill="none" stroke="black" d="M680.5,-115.99C680.5,-106.86 680.5,-93.3 680.5,-83.27"/>
<polygon fill="black" stroke="black" points="680.5,-78.11 682.75,-83.11 680.5,-80.61 680.5,-83.11 680.5,-83.11 680.5,-83.11 680.5,-80.61 678.25,-83.11 680.5,-78.11 680.5,-78.11"/>
</g>
<!-- v9 -->
<g id="v9_ID(A)" class="node">
<title>v9</title>
<ellipse fill="none" stroke="black" cx="897.5" cy="-11" rx="25" ry="11"/>
<text text-anchor="middle" x="897.5" y="-8.8" font-family="sans-serif" font-size="9.00">ID(A)</text>
</g>
<!-- v8&#45;&gt;v9 -->
<g id="edge10" class="edge">
<title>v8&#45;&gt;v9</title>
<path fill="none" stroke="black" d="M754.08,-61.58C783.67,-51.35 841.44,-31.38 873.9,-20.16"/>
<polygon fill="black" stroke="black" points="878.88,-18.44 874.89,-22.2 876.52,-19.25 874.16,-20.07 874.16,-20.07 874.16,-20.07 876.52,-19.25 873.42,-17.94 878.88,-18.44 878.88,-18.44"/>
</g>
</g>
</svg>
