<?xml version="1.0" encoding="UTF-8" standalone="no"?>
<?xml-stylesheet href="style.css" type="text/css"?>
<!DOCTYPE svg PUBLIC "-//W3C//DTD SVG 1.1//EN"
 "http://www.w3.org/Graphics/SVG/1.1/DTD/svg11.dtd">
<!-- Generated by graphviz version 2.43.0 (0)
 -->
<!-- Title: b Pages: 1 -->
<svg width="1097pt" height="316pt"
 viewBox="0.00 0.00 1097.00 316.00" xmlns="http://www.w3.org/2000/svg" xmlns:xlink="http://www.w3.org/1999/xlink">
<g id="graph0" class="graph" transform="scale(1 1) rotate(0) translate(4 312)">
<title>b</title>
<polygon fill="white" stroke="transparent" points="-4,4 -4,-312 1093,-312 1093,4 -4,4"/>
<!-- r0 -->
<g id="node1" class="node">
<title>r0</title>
<polygon fill="none" stroke="black" stroke-dasharray="5,2" points="969,-308 946,-308 946,-290 969,-290 969,-308"/>
<text text-anchor="middle" x="957.5" y="-296.8" font-family="serif" font-size="9.00">0</text>
</g>
<!-- v0 -->
<g id="v0_Boundary" class="node">
<title>v0</title>
<ellipse fill="none" stroke="black" cx="957.5" cy="-243" rx="36" ry="11"/>
<text text-anchor="middle" x="957.5" y="-240.8" font-family="sans-serif" font-size="9.00">Boundary</text>
</g>
<!-- r0&#45;&gt;v0 -->
<g id="edge1" class="edge">
<title>r0&#45;&gt;v0</title>
<path fill="none" stroke="black" d="M957.5,-289.56C957.5,-281.45 957.5,-269.01 957.5,-259.18"/>
<polygon fill="black" stroke="black" points="957.5,-254.03 959.75,-259.03 957.5,-256.53 957.5,-259.03 957.5,-259.03 957.5,-259.03 957.5,-256.53 955.25,-259.03 957.5,-254.03 957.5,-254.03"/>
</g>
<!-- e0 -->
<g id="node2" class="node">
<title>e0</title>
</g>
<!-- v3 -->
<g id="v3_Agent" class="node">
<title>v3</title>
<ellipse fill="none" stroke="black" cx="1022.5" cy="-69" rx="25" ry="11"/>
<text text-anchor="middle" x="1022.5" y="-66.8" font-family="sans-serif" font-size="9.00">Agent</text>
</g>
<!-- e0&#45;&gt;v3 -->
<g id="edge15" class="edge">
<title>e0&#45;&gt;v3</title>
<path fill="none" stroke="green" d="M1022.5,-122.17C1022.5,-113.59 1022.5,-92.6 1022.5,-80.01"/>
<polygon fill="green" stroke="green" points="1026,-125.3 1019,-125.3 1019,-123.9 1026,-123.9 1026,-125.3"/>
<polyline fill="none" stroke="green" points="1022.5,-126 1022.5,-122.5 "/>
</g>
<!-- v1 -->
<g id="v1_ID(6&#45;180837&#45;Cambridgeshire)" class="node">
<title>v1</title>
<ellipse fill="none" stroke="black" cx="104.5" cy="-11" rx="104.5" ry="11"/>
<text text-anchor="middle" x="104.5" y="-8.8" font-family="sans-serif" font-size="9.00">ID(6&#45;180837&#45;Cambridgeshire)</text>
</g>
<!-- v0&#45;&gt;v1 -->
<g id="edge2" class="edge">
<title>v0&#45;&gt;v1</title>
<path fill="none" stroke="black" d="M931.97,-235.12C810.75,-202.43 292.93,-62.81 144.45,-22.77"/>
<polygon fill="black" stroke="black" points="139.32,-21.39 144.73,-20.52 141.73,-22.04 144.15,-22.69 144.15,-22.69 144.15,-22.69 141.73,-22.04 143.56,-24.86 139.32,-21.39 139.32,-21.39"/>
</g>
<!-- v2 -->
<g id="v2_Boundary" class="node">
<title>v2</title>
<ellipse fill="none" stroke="black" cx="886.5" cy="-185" rx="36" ry="11"/>
<text text-anchor="middle" x="886.5" y="-182.8" font-family="sans-serif" font-size="9.00">Boundary</text>
</g>
<!-- v0&#45;&gt;v2 -->
<g id="edge3" class="edge">
<title>v0&#45;&gt;v2</title>
<path fill="none" stroke="black" d="M945.46,-232.5C933.8,-223.3 916.03,-209.29 903.05,-199.05"/>
<polygon fill="black" stroke="black" points="898.84,-195.73 904.16,-197.06 900.8,-197.28 902.77,-198.83 902.77,-198.83 902.77,-198.83 900.8,-197.28 901.37,-200.6 898.84,-195.73 898.84,-195.73"/>
</g>
<!-- v0&#45;&gt;v3 -->
<g id="edge4" class="edge">
<title>v0&#45;&gt;v3</title>
<path fill="none" stroke="black" d="M961.28,-232.01C972.18,-203.15 1003.77,-119.56 1016.79,-85.11"/>
<polygon fill="black" stroke="black" points="1018.71,-80.02 1019.05,-85.49 1017.83,-82.36 1016.95,-84.7 1016.95,-84.7 1016.95,-84.7 1017.83,-82.36 1014.84,-83.9 1018.71,-80.02 1018.71,-80.02"/>
</g>
<!-- s0 -->
<g id="node13" class="node">
<title>s0</title>
<polygon fill="gray" stroke="black" stroke-dasharray="5,2" points="1089,-20 1066,-20 1066,-2 1089,-2 1089,-20"/>
<text text-anchor="middle" x="1077.5" y="-8.8" font-family="serif" font-size="9.00">0</text>
</g>
<!-- v0&#45;&gt;s0 -->
<g id="edge11" class="edge">
<title>v0&#45;&gt;s0</title>
<path fill="none" stroke="black" d="M965.14,-232.23C972.33,-222.98 983.31,-208.68 992.5,-196 1010.87,-170.64 1017.54,-165.51 1032.5,-138 1045.83,-113.49 1047.04,-106.24 1056.5,-80 1063.31,-61.12 1069.93,-38.82 1073.86,-25.04"/>
<polygon fill="black" stroke="black" points="1075.28,-20.04 1076.08,-25.46 1074.6,-22.44 1073.92,-24.85 1073.92,-24.85 1073.92,-24.85 1074.6,-22.44 1071.75,-24.23 1075.28,-20.04 1075.28,-20.04"/>
</g>
<!-- v4 -->
<g id="v4_Street" class="node">
<title>v4</title>
<ellipse fill="none" stroke="black" cx="675.5" cy="-127" rx="29" ry="11"/>
<text text-anchor="middle" x="675.5" y="-124.8" font-family="sans-serif" font-size="9.00">Street</text>
</g>
<!-- v2&#45;&gt;v4 -->
<g id="edge5" class="edge">
<title>v2&#45;&gt;v4</title>
<path fill="none" stroke="black" d="M860.63,-177.13C820.63,-166.52 744.13,-146.21 703.11,-135.33"/>
<polygon fill="black" stroke="black" points="698.04,-133.98 703.45,-133.09 700.46,-134.62 702.88,-135.27 702.88,-135.27 702.88,-135.27 700.46,-134.62 702.3,-137.44 698.04,-133.98 698.04,-133.98"/>
</g>
<!-- v5 -->
<g id="v5_ID(8&#45;295355&#45;Cambridge)" class="node">
<title>v5</title>
<ellipse fill="none" stroke="black" cx="851.5" cy="-11" rx="86.5" ry="11"/>
<text text-anchor="middle" x="851.5" y="-8.8" font-family="sans-serif" font-size="9.00">ID(8&#45;295355&#45;Cambridge)</text>
</g>
<!-- v2&#45;&gt;v5 -->
<g id="edge6" class="edge">
<title>v2&#45;&gt;v5</title>
<path fill="none" stroke="black" d="M884.47,-174.01C878.6,-145.15 861.58,-61.56 854.57,-27.11"/>
<polygon fill="black" stroke="black" points="853.54,-22.02 856.74,-26.47 854.04,-24.47 854.54,-26.92 854.54,-26.92 854.54,-26.92 854.04,-24.47 852.33,-27.37 853.54,-22.02 853.54,-22.02"/>
</g>
<!-- s1 -->
<g id="node14" class="node">
<title>s1</title>
<polygon fill="gray" stroke="black" stroke-dasharray="5,2" points="979,-20 956,-20 956,-2 979,-2 979,-20"/>
<text text-anchor="middle" x="967.5" y="-8.8" font-family="serif" font-size="9.00">1</text>
</g>
<!-- v2&#45;&gt;s1 -->
<g id="edge12" class="edge">
<title>v2&#45;&gt;s1</title>
<path fill="none" stroke="black" d="M891.21,-174.01C905.05,-144.61 945.66,-58.38 961.28,-25.21"/>
<polygon fill="black" stroke="black" points="963.56,-20.36 963.47,-25.84 962.5,-22.62 961.43,-24.88 961.43,-24.88 961.43,-24.88 962.5,-22.62 959.4,-23.93 963.56,-20.36 963.56,-20.36"/>
</g>
<!-- v9 -->
<g id="v9_ID(A)" class="node">
<title>v9</title>
<ellipse fill="none" stroke="black" cx="1022.5" cy="-11" rx="25" ry="11"/>
<text text-anchor="middle" x="1022.5" y="-8.8" font-family="sans-serif" font-size="9.00">ID(A)</text>
</g>
<!-- v3&#45;&gt;v9 -->
<g id="edge7" class="edge">
<title>v3&#45;&gt;v9</title>
<path fill="none" stroke="black" d="M1022.5,-57.99C1022.5,-49.49 1022.5,-37.17 1022.5,-27.42"/>
<polygon fill="black" stroke="black" points="1022.5,-22.3 1024.75,-27.3 1022.5,-24.8 1022.5,-27.3 1022.5,-27.3 1022.5,-27.3 1022.5,-24.8 1020.25,-27.3 1022.5,-22.3 1022.5,-22.3"/>
</g>
<!-- v6 -->
<g id="v6_Building" class="node">
<title>v6</title>
<ellipse fill="none" stroke="black" cx="495.5" cy="-69" rx="36" ry="11"/>
<text text-anchor="middle" x="495.5" y="-66.8" font-family="sans-serif" font-size="9.00">Building</text>
</g>
<!-- v4&#45;&gt;v6 -->
<g id="edge8" class="edge">
<title>v4&#45;&gt;v6</title>
<path fill="none" stroke="black" d="M654.14,-119.36C621.84,-109.3 560.47,-90.21 524.26,-78.95"/>
<polygon fill="black" stroke="black" points="519.11,-77.34 524.55,-76.68 521.49,-78.09 523.88,-78.83 523.88,-78.83 523.88,-78.83 521.49,-78.09 523.21,-80.98 519.11,-77.34 519.11,-77.34"/>
</g>
<!-- v7 -->
<g id="v7_ID(J J Thompson Avenue)" class="node">
<title>v7</title>
<ellipse fill="none" stroke="black" cx="615.5" cy="-11" rx="90" ry="11"/>
<text text-anchor="middle" x="615.5" y="-8.8" font-family="sans-serif" font-size="9.00">ID(J J Thompson Avenue)</text>
</g>
<!-- v4&#45;&gt;v7 -->
<g id="edge9" class="edge">
<title>v4&#45;&gt;v7</title>
<path fill="none" stroke="black" d="M670.18,-115.88C659.57,-95.74 635.77,-50.52 623.37,-26.94"/>
<polygon fill="black" stroke="black" points="620.9,-22.26 625.22,-25.63 622.06,-24.47 623.23,-26.68 623.23,-26.68 623.23,-26.68 622.06,-24.47 621.24,-27.73 620.9,-22.26 620.9,-22.26"/>
</g>
<!-- s2 -->
<g id="node15" class="node">
<title>s2</title>
<polygon fill="gray" stroke="black" stroke-dasharray="5,2" points="747,-20 724,-20 724,-2 747,-2 747,-20"/>
<text text-anchor="middle" x="735.5" y="-8.8" font-family="serif" font-size="9.00">2</text>
</g>
<!-- v4&#45;&gt;s2 -->
<g id="edge13" class="edge">
<title>v4&#45;&gt;s2</title>
<path fill="none" stroke="black" d="M680.82,-115.88C691.8,-95.03 716.92,-47.29 728.91,-24.53"/>
<polygon fill="black" stroke="black" points="731.25,-20.07 730.92,-25.54 730.09,-22.28 728.93,-24.49 728.93,-24.49 728.93,-24.49 730.09,-22.28 726.93,-23.44 731.25,-20.07 731.25,-20.07"/>
</g>
<!-- v8 -->
<g id="v8_ID(8388&#45;William Gates Building)" class="node">
<title>v8</title>
<ellipse fill="none" stroke="black" cx="346.5" cy="-11" rx="119" ry="11"/>
<text text-anchor="middle" x="346.5" y="-8.8" font-family="sans-serif" font-size="9.00">ID(8388&#45;William Gates Building)</text>
</g>
<!-- v6&#45;&gt;v8 -->
<g id="edge10" class="edge">
<title>v6&#45;&gt;v8</title>
<path fill="none" stroke="black" d="M474.15,-59.98C448.82,-50.46 406.39,-34.51 377.45,-23.63"/>
<polygon fill="black" stroke="black" points="372.57,-21.8 378.04,-21.45 374.91,-22.68 377.25,-23.56 377.25,-23.56 377.25,-23.56 374.91,-22.68 376.46,-25.66 372.57,-21.8 372.57,-21.8"/>
</g>
<!-- s3 -->
<g id="node16" class="node">
<title>s3</title>
<polygon fill="gray" stroke="black" stroke-dasharray="5,2" points="507,-20 484,-20 484,-2 507,-2 507,-20"/>
<text text-anchor="middle" x="495.5" y="-8.8" font-family="serif" font-size="9.00">3</text>
</g>
<!-- v6&#45;&gt;s3 -->
<g id="edge14" class="edge">
<title>v6&#45;&gt;s3</title>
<path fill="none" stroke="black" d="M495.5,-57.99C495.5,-48.86 495.5,-35.3 495.5,-25.27"/>
<polygon fill="black" stroke="black" points="495.5,-20.11 497.75,-25.11 495.5,-22.61 495.5,-25.11 495.5,-25.11 495.5,-25.11 495.5,-22.61 493.25,-25.11 495.5,-20.11 495.5,-20.11"/>
</g>
</g>
</svg>
