<?xml version="1.0" encoding="UTF-8" standalone="no"?>
<?xml-stylesheet href="style.css" type="text/css"?>
<!DOCTYPE svg PUBLIC "-//W3C//DTD SVG 1.1//EN"
 "http://www.w3.org/Graphics/SVG/1.1/DTD/svg11.dtd">
<!-- Generated by graphviz version 2.43.0 (0)
 -->
<!-- Title: b Pages: 1 -->
<svg width="4188pt" height="254pt"
 viewBox="0.00 0.00 4187.50 254.00" xmlns="http://www.w3.org/2000/svg" xmlns:xlink="http://www.w3.org/1999/xlink">
<g id="graph0" class="graph" transform="scale(1 1) rotate(0) translate(4 250)">
<title>b</title>
<polygon fill="white" stroke="transparent" points="-4,4 -4,-250 4183.5,-250 4183.5,4 -4,4"/>
<!-- r0 -->
<g id="node1" class="node">
<title>r0</title>
<polygon fill="none" stroke="black" stroke-dasharray="5,2" points="2664.5,-246 2641.5,-246 2641.5,-228 2664.5,-228 2664.5,-246"/>
<text text-anchor="middle" x="2653" y="-234.8" font-family="serif" font-size="9.00">0</text>
</g>
<!-- v0 -->
<g id="v0_Boundary(10&#45;1609095&#45;Whittlesey)" class="node">
<title>v0</title>
<ellipse fill="none" stroke="black" cx="2653" cy="-181" rx="119" ry="11"/>
<text text-anchor="middle" x="2653" y="-178.8" font-family="sans-serif" font-size="9.00">Boundary(10&#45;1609095&#45;Whittlesey)</text>
</g>
<!-- r0&#45;&gt;v0 -->
<g id="edge1" class="edge">
<title>r0&#45;&gt;v0</title>
<path fill="none" stroke="black" d="M2653,-227.56C2653,-219.45 2653,-207.01 2653,-197.18"/>
<polygon fill="black" stroke="black" points="2653,-192.03 2655.25,-197.03 2653,-194.53 2653,-197.03 2653,-197.03 2653,-197.03 2653,-194.53 2650.75,-197.03 2653,-192.03 2653,-192.03"/>
</g>
<!-- v1 -->
<g id="v1_Street(Church Street)" class="node">
<title>v1</title>
<ellipse fill="none" stroke="black" cx="366" cy="-123" rx="83" ry="11"/>
<text text-anchor="middle" x="366" y="-120.8" font-family="sans-serif" font-size="9.00">Street(Church Street)</text>
</g>
<!-- v0&#45;&gt;v1 -->
<g id="edge2" class="edge">
<title>v0&#45;&gt;v1</title>
<path fill="none" stroke="black" d="M2539.81,-177.54C2240.65,-171 1404.19,-152.41 708,-134 620.18,-131.68 519.68,-128.7 450.47,-126.6"/>
<polygon fill="black" stroke="black" points="445.12,-126.44 450.19,-124.34 447.62,-126.51 450.12,-126.59 450.12,-126.59 450.12,-126.59 447.62,-126.51 450.05,-128.84 445.12,-126.44 445.12,-126.44"/>
</g>
<!-- v3 -->
<g id="v3_Street(Eastgate)" class="node">
<title>v3</title>
<ellipse fill="none" stroke="black" cx="782" cy="-123" rx="65" ry="11"/>
<text text-anchor="middle" x="782" y="-120.8" font-family="sans-serif" font-size="9.00">Street(Eastgate)</text>
</g>
<!-- v0&#45;&gt;v3 -->
<g id="edge3" class="edge">
<title>v0&#45;&gt;v3</title>
<path fill="none" stroke="black" d="M2539.19,-177.63C2270.11,-171.85 1573.59,-155.9 992,-134 943.56,-132.18 888.85,-129.55 847.42,-127.45"/>
<polygon fill="black" stroke="black" points="842.18,-127.18 847.29,-125.19 844.68,-127.31 847.18,-127.44 847.18,-127.44 847.18,-127.44 844.68,-127.31 847.06,-129.69 842.18,-127.18 842.18,-127.18"/>
</g>
<!-- v5 -->
<g id="v5_Street(High Causeway)" class="node">
<title>v5</title>
<ellipse fill="none" stroke="black" cx="1084" cy="-123" rx="83" ry="11"/>
<text text-anchor="middle" x="1084" y="-120.8" font-family="sans-serif" font-size="9.00">Street(High Causeway)</text>
</g>
<!-- v0&#45;&gt;v5 -->
<g id="edge4" class="edge">
<title>v0&#45;&gt;v5</title>
<path fill="none" stroke="black" d="M2545.77,-176.17C2250.83,-165.65 1431.81,-136.41 1167.44,-126.98"/>
<polygon fill="black" stroke="black" points="1162.06,-126.79 1167.14,-124.72 1164.56,-126.88 1167.06,-126.96 1167.06,-126.96 1167.06,-126.96 1164.56,-126.88 1166.98,-129.21 1162.06,-126.79 1162.06,-126.79"/>
</g>
<!-- v7 -->
<g id="v7_Street(Kings Delph)" class="node">
<title>v7</title>
<ellipse fill="none" stroke="black" cx="1458" cy="-123" rx="75.5" ry="11"/>
<text text-anchor="middle" x="1458" y="-120.8" font-family="sans-serif" font-size="9.00">Street(Kings Delph)</text>
</g>
<!-- v0&#45;&gt;v7 -->
<g id="edge5" class="edge">
<title>v0&#45;&gt;v7</title>
<path fill="none" stroke="black" d="M2551.37,-175.24C2316.32,-164.22 1739.49,-137.19 1533.02,-127.52"/>
<polygon fill="black" stroke="black" points="1527.92,-127.28 1533.02,-125.26 1530.41,-127.39 1532.91,-127.51 1532.91,-127.51 1532.91,-127.51 1530.41,-127.39 1532.8,-129.76 1527.92,-127.28 1527.92,-127.28"/>
</g>
<!-- v9 -->
<g id="v9_Street(Market Street)" class="node">
<title>v9</title>
<ellipse fill="none" stroke="black" cx="2353" cy="-123" rx="83" ry="11"/>
<text text-anchor="middle" x="2353" y="-120.8" font-family="sans-serif" font-size="9.00">Street(Market Street)</text>
</g>
<!-- v0&#45;&gt;v9 -->
<g id="edge6" class="edge">
<title>v0&#45;&gt;v9</title>
<path fill="none" stroke="black" d="M2604.47,-170.94C2548.93,-160.57 2458.46,-143.69 2402.52,-133.24"/>
<polygon fill="black" stroke="black" points="2397.55,-132.32 2402.87,-131.02 2400,-132.77 2402.46,-133.23 2402.46,-133.23 2402.46,-133.23 2400,-132.77 2402.05,-135.44 2397.55,-132.32 2397.55,-132.32"/>
</g>
<!-- v14 -->
<g id="v14_Street(Queen Street)" class="node">
<title>v14</title>
<ellipse fill="none" stroke="black" cx="2804" cy="-123" rx="79" ry="11"/>
<text text-anchor="middle" x="2804" y="-120.8" font-family="sans-serif" font-size="9.00">Street(Queen Street)</text>
</g>
<!-- v0&#45;&gt;v14 -->
<g id="edge7" class="edge">
<title>v0&#45;&gt;v14</title>
<path fill="none" stroke="black" d="M2679.3,-170.25C2705.55,-160.51 2745.86,-145.56 2773.5,-135.31"/>
<polygon fill="black" stroke="black" points="2778.5,-133.46 2774.6,-137.3 2776.16,-134.33 2773.81,-135.19 2773.81,-135.19 2773.81,-135.19 2776.16,-134.33 2773.03,-133.09 2778.5,-133.46 2778.5,-133.46"/>
</g>
<!-- v16 -->
<g id="v16_Street(Ramsey Road)" class="node">
<title>v16</title>
<ellipse fill="none" stroke="black" cx="3095" cy="-123" rx="75.5" ry="11"/>
<text text-anchor="middle" x="3095" y="-120.8" font-family="sans-serif" font-size="9.00">Street(Ramsey Road)</text>
</g>
<!-- v0&#45;&gt;v16 -->
<g id="edge8" class="edge">
<title>v0&#45;&gt;v16</title>
<path fill="none" stroke="black" d="M2718.22,-171.74C2803.99,-160.87 2953.44,-141.94 3035.99,-131.48"/>
<polygon fill="black" stroke="black" points="3041.33,-130.8 3036.66,-133.66 3038.85,-131.11 3036.37,-131.43 3036.37,-131.43 3036.37,-131.43 3038.85,-131.11 3036.09,-129.2 3041.33,-130.8 3041.33,-130.8"/>
</g>
<!-- v18 -->
<g id="v18_Street(Victory Avenue)" class="node">
<title>v18</title>
<ellipse fill="none" stroke="black" cx="3389" cy="-123" rx="86.5" ry="11"/>
<text text-anchor="middle" x="3389" y="-120.8" font-family="sans-serif" font-size="9.00">Street(Victory Avenue)</text>
</g>
<!-- v0&#45;&gt;v18 -->
<g id="edge9" class="edge">
<title>v0&#45;&gt;v18</title>
<path fill="none" stroke="black" d="M2739.59,-173.41C2884.88,-162.36 3175.31,-140.26 3313.1,-129.78"/>
<polygon fill="black" stroke="black" points="3318.34,-129.38 3313.52,-132 3315.84,-129.57 3313.35,-129.76 3313.35,-129.76 3313.35,-129.76 3315.84,-129.57 3313.18,-127.51 3318.34,-129.38 3318.34,-129.38"/>
</g>
<!-- v20 -->
<g id="v20_Street(West Delph)" class="node">
<title>v20</title>
<ellipse fill="none" stroke="black" cx="3792" cy="-123" rx="72" ry="11"/>
<text text-anchor="middle" x="3792" y="-120.8" font-family="sans-serif" font-size="9.00">Street(West Delph)</text>
</g>
<!-- v0&#45;&gt;v20 -->
<g id="edge10" class="edge">
<title>v0&#45;&gt;v20</title>
<path fill="none" stroke="black" d="M2753.58,-175.05C2979.9,-163.93 3524.72,-137.14 3720.46,-127.52"/>
<polygon fill="black" stroke="black" points="3725.58,-127.27 3720.7,-129.76 3723.08,-127.39 3720.59,-127.51 3720.59,-127.51 3720.59,-127.51 3723.08,-127.39 3720.48,-125.26 3725.58,-127.27 3725.58,-127.27"/>
</g>
<!-- s0 -->
<g id="node25" class="node">
<title>s0</title>
<polygon fill="gray" stroke="black" stroke-dasharray="5,2" points="4179.5,-18 4156.5,-18 4156.5,0 4179.5,0 4179.5,-18"/>
<text text-anchor="middle" x="4168" y="-6.8" font-family="serif" font-size="9.00">0</text>
</g>
<!-- v0&#45;&gt;s0 -->
<g id="edge24" class="edge">
<title>v0&#45;&gt;s0</title>
<path fill="none" stroke="black" d="M2768.99,-178.42C3030.96,-174.38 3661.97,-162.01 3873,-134 3986.93,-118.88 4030.79,-141.82 4125,-76 4143.94,-62.77 4156.6,-38.27 4163.03,-23.13"/>
<polygon fill="black" stroke="black" points="4164.97,-18.38 4165.16,-23.86 4164.03,-20.69 4163.08,-23.01 4163.08,-23.01 4163.08,-23.01 4164.03,-20.69 4161,-22.16 4164.97,-18.38 4164.97,-18.38"/>
</g>
<!-- v2 -->
<g id="v2_Building(685011752&#45;Whittlesey Salvation Army)" class="node">
<title>v2</title>
<ellipse fill="none" stroke="black" cx="169" cy="-65" rx="169" ry="11"/>
<text text-anchor="middle" x="169" y="-62.8" font-family="sans-serif" font-size="9.00">Building(685011752&#45;Whittlesey Salvation Army)</text>
</g>
<!-- v1&#45;&gt;v2 -->
<g id="edge11" class="edge">
<title>v1&#45;&gt;v2</title>
<path fill="none" stroke="black" d="M333.47,-112.75C299.16,-103 245.1,-87.63 208.4,-77.2"/>
<polygon fill="black" stroke="black" points="203.57,-75.83 208.99,-75.03 205.97,-76.51 208.38,-77.19 208.38,-77.19 208.38,-77.19 205.97,-76.51 207.76,-79.36 203.57,-75.83 203.57,-75.83"/>
</g>
<!-- s1 -->
<g id="node26" class="node">
<title>s1</title>
<polygon fill="gray" stroke="black" stroke-dasharray="5,2" points="377.5,-18 354.5,-18 354.5,0 377.5,0 377.5,-18"/>
<text text-anchor="middle" x="366" y="-6.8" font-family="serif" font-size="9.00">1</text>
</g>
<!-- v1&#45;&gt;s1 -->
<g id="edge25" class="edge">
<title>v1&#45;&gt;s1</title>
<path fill="none" stroke="black" d="M366,-111.66C366,-91.3 366,-45.99 366,-23.38"/>
<polygon fill="black" stroke="black" points="366,-18.14 368.25,-23.14 366,-20.64 366,-23.14 366,-23.14 366,-23.14 366,-20.64 363.75,-23.15 366,-18.14 366,-18.14"/>
</g>
<!-- s2 -->
<g id="node27" class="node">
<title>s2</title>
<polygon fill="gray" stroke="black" stroke-dasharray="5,2" points="180.5,-18 157.5,-18 157.5,0 180.5,0 180.5,-18"/>
<text text-anchor="middle" x="169" y="-6.8" font-family="serif" font-size="9.00">2</text>
</g>
<!-- v2&#45;&gt;s2 -->
<g id="edge26" class="edge">
<title>v2&#45;&gt;s2</title>
<path fill="none" stroke="black" d="M169,-53.59C169,-44.98 169,-32.7 169,-23.37"/>
<polygon fill="black" stroke="black" points="169,-18.26 171.25,-23.26 169,-20.76 169,-23.26 169,-23.26 169,-23.26 169,-20.76 166.75,-23.26 169,-18.26 169,-18.26"/>
</g>
<!-- v4 -->
<g id="v4_Building(9946755507&#45;Harrison Rose Estate Agents)" class="node">
<title>v4</title>
<ellipse fill="none" stroke="black" cx="574" cy="-65" rx="180" ry="11"/>
<text text-anchor="middle" x="574" y="-62.8" font-family="sans-serif" font-size="9.00">Building(9946755507&#45;Harrison Rose Estate Agents)</text>
</g>
<!-- v3&#45;&gt;v4 -->
<g id="edge12" class="edge">
<title>v3&#45;&gt;v4</title>
<path fill="none" stroke="black" d="M749.96,-113.37C713.97,-103.68 655.43,-87.92 615.85,-77.27"/>
<polygon fill="black" stroke="black" points="610.64,-75.86 616.05,-74.99 613.05,-76.51 615.47,-77.16 615.47,-77.16 615.47,-77.16 613.05,-76.51 614.88,-79.34 610.64,-75.86 610.64,-75.86"/>
</g>
<!-- s3 -->
<g id="node28" class="node">
<title>s3</title>
<polygon fill="gray" stroke="black" stroke-dasharray="5,2" points="793.5,-18 770.5,-18 770.5,0 793.5,0 793.5,-18"/>
<text text-anchor="middle" x="782" y="-6.8" font-family="serif" font-size="9.00">3</text>
</g>
<!-- v3&#45;&gt;s3 -->
<g id="edge27" class="edge">
<title>v3&#45;&gt;s3</title>
<path fill="none" stroke="black" d="M782,-111.66C782,-91.3 782,-45.99 782,-23.38"/>
<polygon fill="black" stroke="black" points="782,-18.14 784.25,-23.14 782,-20.64 782,-23.14 782,-23.14 782,-23.14 782,-20.64 779.75,-23.15 782,-18.14 782,-18.14"/>
</g>
<!-- s4 -->
<g id="node29" class="node">
<title>s4</title>
<polygon fill="gray" stroke="black" stroke-dasharray="5,2" points="585.5,-18 562.5,-18 562.5,0 585.5,0 585.5,-18"/>
<text text-anchor="middle" x="574" y="-6.8" font-family="serif" font-size="9.00">4</text>
</g>
<!-- v4&#45;&gt;s4 -->
<g id="edge28" class="edge">
<title>v4&#45;&gt;s4</title>
<path fill="none" stroke="black" d="M574,-53.59C574,-44.98 574,-32.7 574,-23.37"/>
<polygon fill="black" stroke="black" points="574,-18.26 576.25,-23.26 574,-20.76 574,-23.26 574,-23.26 574,-23.26 574,-20.76 571.75,-23.26 574,-18.26 574,-18.26"/>
</g>
<!-- v6 -->
<g id="v6_Building(1575974943&#45;Heron Foods)" class="node">
<title>v6</title>
<ellipse fill="none" stroke="black" cx="933" cy="-65" rx="122.5" ry="11"/>
<text text-anchor="middle" x="933" y="-62.8" font-family="sans-serif" font-size="9.00">Building(1575974943&#45;Heron Foods)</text>
</g>
<!-- v5&#45;&gt;v6 -->
<g id="edge13" class="edge">
<title>v5&#45;&gt;v6</title>
<path fill="none" stroke="black" d="M1058.38,-112.5C1032.38,-102.85 992.07,-87.91 964.21,-77.57"/>
<polygon fill="black" stroke="black" points="959.5,-75.83 964.97,-75.46 961.85,-76.7 964.19,-77.57 964.19,-77.57 964.19,-77.57 961.85,-76.7 963.41,-79.68 959.5,-75.83 959.5,-75.83"/>
</g>
<!-- s5 -->
<g id="node30" class="node">
<title>s5</title>
<polygon fill="gray" stroke="black" stroke-dasharray="5,2" points="1095.5,-18 1072.5,-18 1072.5,0 1095.5,0 1095.5,-18"/>
<text text-anchor="middle" x="1084" y="-6.8" font-family="serif" font-size="9.00">5</text>
</g>
<!-- v5&#45;&gt;s5 -->
<g id="edge29" class="edge">
<title>v5&#45;&gt;s5</title>
<path fill="none" stroke="black" d="M1084,-111.66C1084,-91.3 1084,-45.99 1084,-23.38"/>
<polygon fill="black" stroke="black" points="1084,-18.14 1086.25,-23.14 1084,-20.64 1084,-23.14 1084,-23.14 1084,-23.14 1084,-20.64 1081.75,-23.15 1084,-18.14 1084,-18.14"/>
</g>
<!-- s6 -->
<g id="node31" class="node">
<title>s6</title>
<polygon fill="gray" stroke="black" stroke-dasharray="5,2" points="944.5,-18 921.5,-18 921.5,0 944.5,0 944.5,-18"/>
<text text-anchor="middle" x="933" y="-6.8" font-family="serif" font-size="9.00">6</text>
</g>
<!-- v6&#45;&gt;s6 -->
<g id="edge30" class="edge">
<title>v6&#45;&gt;s6</title>
<path fill="none" stroke="black" d="M933,-53.59C933,-44.98 933,-32.7 933,-23.37"/>
<polygon fill="black" stroke="black" points="933,-18.26 935.25,-23.26 933,-20.76 933,-23.26 933,-23.26 933,-23.26 933,-20.76 930.75,-23.26 933,-18.26 933,-18.26"/>
</g>
<!-- v8 -->
<g id="v8_Building(4915712697&#45;New Peterborough Auto)" class="node">
<title>v8</title>
<ellipse fill="none" stroke="black" cx="1271" cy="-65" rx="158.5" ry="11"/>
<text text-anchor="middle" x="1271" y="-62.8" font-family="sans-serif" font-size="9.00">Building(4915712697&#45;New Peterborough Auto)</text>
</g>
<!-- v7&#45;&gt;v8 -->
<g id="edge14" class="edge">
<title>v7&#45;&gt;v8</title>
<path fill="none" stroke="black" d="M1427.54,-112.88C1395.09,-103.16 1343.67,-87.76 1308.69,-77.29"/>
<polygon fill="black" stroke="black" points="1303.65,-75.78 1309.08,-75.06 1306.04,-76.49 1308.44,-77.21 1308.44,-77.21 1308.44,-77.21 1306.04,-76.49 1307.79,-79.37 1303.65,-75.78 1303.65,-75.78"/>
</g>
<!-- s7 -->
<g id="node32" class="node">
<title>s7</title>
<polygon fill="gray" stroke="black" stroke-dasharray="5,2" points="1469.5,-18 1446.5,-18 1446.5,0 1469.5,0 1469.5,-18"/>
<text text-anchor="middle" x="1458" y="-6.8" font-family="serif" font-size="9.00">7</text>
</g>
<!-- v7&#45;&gt;s7 -->
<g id="edge31" class="edge">
<title>v7&#45;&gt;s7</title>
<path fill="none" stroke="black" d="M1458,-111.66C1458,-91.3 1458,-45.99 1458,-23.38"/>
<polygon fill="black" stroke="black" points="1458,-18.14 1460.25,-23.14 1458,-20.64 1458,-23.14 1458,-23.14 1458,-23.14 1458,-20.64 1455.75,-23.15 1458,-18.14 1458,-18.14"/>
</g>
<!-- s8 -->
<g id="node33" class="node">
<title>s8</title>
<polygon fill="gray" stroke="black" stroke-dasharray="5,2" points="1282.5,-18 1259.5,-18 1259.5,0 1282.5,0 1282.5,-18"/>
<text text-anchor="middle" x="1271" y="-6.8" font-family="serif" font-size="9.00">8</text>
</g>
<!-- v8&#45;&gt;s8 -->
<g id="edge32" class="edge">
<title>v8&#45;&gt;s8</title>
<path fill="none" stroke="black" d="M1271,-53.59C1271,-44.98 1271,-32.7 1271,-23.37"/>
<polygon fill="black" stroke="black" points="1271,-18.26 1273.25,-23.26 1271,-20.76 1271,-23.26 1271,-23.26 1271,-23.26 1271,-20.76 1268.75,-23.26 1271,-18.26 1271,-18.26"/>
</g>
<!-- v10 -->
<g id="v10_Building(5838014735&#45;Whittlesey Museum)" class="node">
<title>v10</title>
<ellipse fill="none" stroke="black" cx="1630" cy="-65" rx="144" ry="11"/>
<text text-anchor="middle" x="1630" y="-62.8" font-family="sans-serif" font-size="9.00">Building(5838014735&#45;Whittlesey Museum)</text>
</g>
<!-- v9&#45;&gt;v10 -->
<g id="edge15" class="edge">
<title>v9&#45;&gt;v10</title>
<path fill="none" stroke="black" d="M2284.66,-116.71C2156.38,-106.77 1879.04,-85.29 1729.83,-73.73"/>
<polygon fill="black" stroke="black" points="1724.58,-73.33 1729.74,-71.47 1727.07,-73.52 1729.57,-73.71 1729.57,-73.71 1729.57,-73.71 1727.07,-73.52 1729.39,-75.96 1724.58,-73.33 1724.58,-73.33"/>
</g>
<!-- v11 -->
<g id="v11_Building(1575955489&#45;Quinns Bar)" class="node">
<title>v11</title>
<ellipse fill="none" stroke="black" cx="1911" cy="-65" rx="119" ry="11"/>
<text text-anchor="middle" x="1911" y="-62.8" font-family="sans-serif" font-size="9.00">Building(1575955489&#45;Quinns Bar)</text>
</g>
<!-- v9&#45;&gt;v11 -->
<g id="edge16" class="edge">
<title>v9&#45;&gt;v11</title>
<path fill="none" stroke="black" d="M2296.57,-114.85C2216.14,-104.66 2068.6,-85.97 1981.21,-74.9"/>
<polygon fill="black" stroke="black" points="1976.06,-74.24 1981.3,-72.64 1978.54,-74.56 1981.02,-74.87 1981.02,-74.87 1981.02,-74.87 1978.54,-74.56 1980.74,-77.1 1976.06,-74.24 1976.06,-74.24"/>
</g>
<!-- v12 -->
<g id="v12_Building(11227976005&#45;Boome Hair &amp; Beauty)" class="node">
<title>v12</title>
<ellipse fill="none" stroke="black" cx="2203" cy="-65" rx="155" ry="11"/>
<text text-anchor="middle" x="2203" y="-62.8" font-family="sans-serif" font-size="9.00">Building(11227976005&#45;Boome Hair &amp; Beauty)</text>
</g>
<!-- v9&#45;&gt;v12 -->
<g id="edge17" class="edge">
<title>v9&#45;&gt;v12</title>
<path fill="none" stroke="black" d="M2327.55,-112.5C2301.9,-102.92 2262.25,-88.12 2234.6,-77.8"/>
<polygon fill="black" stroke="black" points="2229.58,-75.92 2235.05,-75.56 2231.92,-76.8 2234.27,-77.67 2234.27,-77.67 2234.27,-77.67 2231.92,-76.8 2233.48,-79.78 2229.58,-75.92 2229.58,-75.92"/>
</g>
<!-- v13 -->
<g id="v13_Building(11227975991&#45;Aspect Fires)" class="node">
<title>v13</title>
<ellipse fill="none" stroke="black" cx="2506" cy="-65" rx="129.5" ry="11"/>
<text text-anchor="middle" x="2506" y="-62.8" font-family="sans-serif" font-size="9.00">Building(11227975991&#45;Aspect Fires)</text>
</g>
<!-- v9&#45;&gt;v13 -->
<g id="edge18" class="edge">
<title>v9&#45;&gt;v13</title>
<path fill="none" stroke="black" d="M2378.95,-112.5C2405.31,-102.85 2446.15,-87.91 2474.38,-77.57"/>
<polygon fill="black" stroke="black" points="2479.15,-75.83 2475.22,-79.66 2476.8,-76.69 2474.45,-77.55 2474.45,-77.55 2474.45,-77.55 2476.8,-76.69 2473.68,-75.43 2479.15,-75.83 2479.15,-75.83"/>
</g>
<!-- s9 -->
<g id="node34" class="node">
<title>s9</title>
<polygon fill="gray" stroke="black" stroke-dasharray="5,2" points="2675.5,-18 2652.5,-18 2652.5,0 2675.5,0 2675.5,-18"/>
<text text-anchor="middle" x="2664" y="-6.8" font-family="serif" font-size="9.00">9</text>
</g>
<!-- v9&#45;&gt;s9 -->
<g id="edge33" class="edge">
<title>v9&#45;&gt;s9</title>
<path fill="none" stroke="black" d="M2430.3,-118.89C2505.53,-114.3 2612.91,-103.09 2644,-76 2659.12,-62.83 2663.01,-38.65 2663.9,-23.5"/>
<polygon fill="black" stroke="black" points="2664.11,-18.37 2666.16,-23.45 2664.01,-20.86 2663.91,-23.36 2663.91,-23.36 2663.91,-23.36 2664.01,-20.86 2661.66,-23.27 2664.11,-18.37 2664.11,-18.37"/>
</g>
<!-- s10 -->
<g id="node35" class="node">
<title>s10</title>
<polygon fill="gray" stroke="black" stroke-dasharray="5,2" points="1644.5,-18 1615.5,-18 1615.5,0 1644.5,0 1644.5,-18"/>
<text text-anchor="middle" x="1630" y="-6.8" font-family="serif" font-size="9.00">10</text>
</g>
<!-- v10&#45;&gt;s10 -->
<g id="edge34" class="edge">
<title>v10&#45;&gt;s10</title>
<path fill="none" stroke="black" d="M1630,-53.59C1630,-44.98 1630,-32.7 1630,-23.37"/>
<polygon fill="black" stroke="black" points="1630,-18.26 1632.25,-23.26 1630,-20.76 1630,-23.26 1630,-23.26 1630,-23.26 1630,-20.76 1627.75,-23.26 1630,-18.26 1630,-18.26"/>
</g>
<!-- s11 -->
<g id="node36" class="node">
<title>s11</title>
<polygon fill="gray" stroke="black" stroke-dasharray="5,2" points="1925.5,-18 1896.5,-18 1896.5,0 1925.5,0 1925.5,-18"/>
<text text-anchor="middle" x="1911" y="-6.8" font-family="serif" font-size="9.00">11</text>
</g>
<!-- v11&#45;&gt;s11 -->
<g id="edge35" class="edge">
<title>v11&#45;&gt;s11</title>
<path fill="none" stroke="black" d="M1911,-53.59C1911,-44.98 1911,-32.7 1911,-23.37"/>
<polygon fill="black" stroke="black" points="1911,-18.26 1913.25,-23.26 1911,-20.76 1911,-23.26 1911,-23.26 1911,-23.26 1911,-20.76 1908.75,-23.26 1911,-18.26 1911,-18.26"/>
</g>
<!-- s12 -->
<g id="node37" class="node">
<title>s12</title>
<polygon fill="gray" stroke="black" stroke-dasharray="5,2" points="2217.5,-18 2188.5,-18 2188.5,0 2217.5,0 2217.5,-18"/>
<text text-anchor="middle" x="2203" y="-6.8" font-family="serif" font-size="9.00">12</text>
</g>
<!-- v12&#45;&gt;s12 -->
<g id="edge36" class="edge">
<title>v12&#45;&gt;s12</title>
<path fill="none" stroke="black" d="M2203,-53.59C2203,-44.98 2203,-32.7 2203,-23.37"/>
<polygon fill="black" stroke="black" points="2203,-18.26 2205.25,-23.26 2203,-20.76 2203,-23.26 2203,-23.26 2203,-23.26 2203,-20.76 2200.75,-23.26 2203,-18.26 2203,-18.26"/>
</g>
<!-- s13 -->
<g id="node38" class="node">
<title>s13</title>
<polygon fill="gray" stroke="black" stroke-dasharray="5,2" points="2520.5,-18 2491.5,-18 2491.5,0 2520.5,0 2520.5,-18"/>
<text text-anchor="middle" x="2506" y="-6.8" font-family="serif" font-size="9.00">13</text>
</g>
<!-- v13&#45;&gt;s13 -->
<g id="edge37" class="edge">
<title>v13&#45;&gt;s13</title>
<path fill="none" stroke="black" d="M2506,-53.59C2506,-44.98 2506,-32.7 2506,-23.37"/>
<polygon fill="black" stroke="black" points="2506,-18.26 2508.25,-23.26 2506,-20.76 2506,-23.26 2506,-23.26 2506,-23.26 2506,-20.76 2503.75,-23.26 2506,-18.26 2506,-18.26"/>
</g>
<!-- v15 -->
<g id="v15_Building(9258516308&#45;Domino&#39;s)" class="node">
<title>v15</title>
<ellipse fill="none" stroke="black" cx="2804" cy="-65" rx="111.5" ry="11"/>
<text text-anchor="middle" x="2804" y="-62.8" font-family="sans-serif" font-size="9.00">Building(9258516308&#45;Domino&#39;s)</text>
</g>
<!-- v14&#45;&gt;v15 -->
<g id="edge19" class="edge">
<title>v14&#45;&gt;v15</title>
<path fill="none" stroke="black" d="M2804,-111.99C2804,-103.49 2804,-91.17 2804,-81.42"/>
<polygon fill="black" stroke="black" points="2804,-76.3 2806.25,-81.3 2804,-78.8 2804,-81.3 2804,-81.3 2804,-81.3 2804,-78.8 2801.75,-81.3 2804,-76.3 2804,-76.3"/>
</g>
<!-- s14 -->
<g id="node39" class="node">
<title>s14</title>
<polygon fill="gray" stroke="black" stroke-dasharray="5,2" points="2958.5,-18 2929.5,-18 2929.5,0 2958.5,0 2958.5,-18"/>
<text text-anchor="middle" x="2944" y="-6.8" font-family="serif" font-size="9.00">14</text>
</g>
<!-- v14&#45;&gt;s14 -->
<g id="edge38" class="edge">
<title>v14&#45;&gt;s14</title>
<path fill="none" stroke="black" d="M2851.48,-114.15C2876.18,-107.77 2905.08,-96.33 2924,-76 2937.54,-61.45 2941.93,-38.03 2943.34,-23.35"/>
<polygon fill="black" stroke="black" points="2943.76,-18.01 2945.61,-23.17 2943.57,-20.5 2943.37,-22.99 2943.37,-22.99 2943.37,-22.99 2943.57,-20.5 2941.13,-22.82 2943.76,-18.01 2943.76,-18.01"/>
</g>
<!-- s15 -->
<g id="node40" class="node">
<title>s15</title>
<polygon fill="gray" stroke="black" stroke-dasharray="5,2" points="2818.5,-18 2789.5,-18 2789.5,0 2818.5,0 2818.5,-18"/>
<text text-anchor="middle" x="2804" y="-6.8" font-family="serif" font-size="9.00">15</text>
</g>
<!-- v15&#45;&gt;s15 -->
<g id="edge39" class="edge">
<title>v15&#45;&gt;s15</title>
<path fill="none" stroke="black" d="M2804,-53.59C2804,-44.98 2804,-32.7 2804,-23.37"/>
<polygon fill="black" stroke="black" points="2804,-18.26 2806.25,-23.26 2804,-20.76 2804,-23.26 2804,-23.26 2804,-23.26 2804,-20.76 2801.75,-23.26 2804,-18.26 2804,-18.26"/>
</g>
<!-- v17 -->
<g id="v17_Building(696928875&#45;The Boat Inn)" class="node">
<title>v17</title>
<ellipse fill="none" stroke="black" cx="3095" cy="-65" rx="122.5" ry="11"/>
<text text-anchor="middle" x="3095" y="-62.8" font-family="sans-serif" font-size="9.00">Building(696928875&#45;The Boat Inn)</text>
</g>
<!-- v16&#45;&gt;v17 -->
<g id="edge20" class="edge">
<title>v16&#45;&gt;v17</title>
<path fill="none" stroke="black" d="M3095,-111.99C3095,-103.49 3095,-91.17 3095,-81.42"/>
<polygon fill="black" stroke="black" points="3095,-76.3 3097.25,-81.3 3095,-78.8 3095,-81.3 3095,-81.3 3095,-81.3 3095,-78.8 3092.75,-81.3 3095,-76.3 3095,-76.3"/>
</g>
<!-- s16 -->
<g id="node41" class="node">
<title>s16</title>
<polygon fill="gray" stroke="black" stroke-dasharray="5,2" points="3260.5,-18 3231.5,-18 3231.5,0 3260.5,0 3260.5,-18"/>
<text text-anchor="middle" x="3246" y="-6.8" font-family="serif" font-size="9.00">16</text>
</g>
<!-- v16&#45;&gt;s16 -->
<g id="edge40" class="edge">
<title>v16&#45;&gt;s16</title>
<path fill="none" stroke="black" d="M3147.41,-115.07C3174.2,-108.96 3205.41,-97.5 3226,-76 3239.74,-61.65 3244.07,-38.16 3245.42,-23.42"/>
<polygon fill="black" stroke="black" points="3245.81,-18.05 3247.69,-23.21 3245.63,-20.55 3245.45,-23.04 3245.45,-23.04 3245.45,-23.04 3245.63,-20.55 3243.2,-22.88 3245.81,-18.05 3245.81,-18.05"/>
</g>
<!-- s17 -->
<g id="node42" class="node">
<title>s17</title>
<polygon fill="gray" stroke="black" stroke-dasharray="5,2" points="3109.5,-18 3080.5,-18 3080.5,0 3109.5,0 3109.5,-18"/>
<text text-anchor="middle" x="3095" y="-6.8" font-family="serif" font-size="9.00">17</text>
</g>
<!-- v17&#45;&gt;s17 -->
<g id="edge41" class="edge">
<title>v17&#45;&gt;s17</title>
<path fill="none" stroke="black" d="M3095,-53.59C3095,-44.98 3095,-32.7 3095,-23.37"/>
<polygon fill="black" stroke="black" points="3095,-18.26 3097.25,-23.26 3095,-20.76 3095,-23.26 3095,-23.26 3095,-23.26 3095,-20.76 3092.75,-23.26 3095,-18.26 3095,-18.26"/>
</g>
<!-- v19 -->
<g id="v19_Building(765346115&#45;Nisa Local)" class="node">
<title>v19</title>
<ellipse fill="none" stroke="black" cx="3389" cy="-65" rx="115" ry="11"/>
<text text-anchor="middle" x="3389" y="-62.8" font-family="sans-serif" font-size="9.00">Building(765346115&#45;Nisa Local)</text>
</g>
<!-- v18&#45;&gt;v19 -->
<g id="edge21" class="edge">
<title>v18&#45;&gt;v19</title>
<path fill="none" stroke="black" d="M3389,-111.99C3389,-103.49 3389,-91.17 3389,-81.42"/>
<polygon fill="black" stroke="black" points="3389,-76.3 3391.25,-81.3 3389,-78.8 3389,-81.3 3389,-81.3 3389,-81.3 3389,-78.8 3386.75,-81.3 3389,-76.3 3389,-76.3"/>
</g>
<!-- s18 -->
<g id="node43" class="node">
<title>s18</title>
<polygon fill="gray" stroke="black" stroke-dasharray="5,2" points="3546.5,-18 3517.5,-18 3517.5,0 3546.5,0 3546.5,-18"/>
<text text-anchor="middle" x="3532" y="-6.8" font-family="serif" font-size="9.00">18</text>
</g>
<!-- v18&#45;&gt;s18 -->
<g id="edge42" class="edge">
<title>v18&#45;&gt;s18</title>
<path fill="none" stroke="black" d="M3440.32,-114.11C3465.37,-107.76 3494.1,-96.37 3513,-76 3526.46,-61.49 3530.45,-38.06 3531.6,-23.36"/>
<polygon fill="black" stroke="black" points="3531.92,-18.02 3533.86,-23.14 3531.77,-20.51 3531.62,-23.01 3531.62,-23.01 3531.62,-23.01 3531.77,-20.51 3529.37,-22.87 3531.92,-18.02 3531.92,-18.02"/>
</g>
<!-- s19 -->
<g id="node44" class="node">
<title>s19</title>
<polygon fill="gray" stroke="black" stroke-dasharray="5,2" points="3403.5,-18 3374.5,-18 3374.5,0 3403.5,0 3403.5,-18"/>
<text text-anchor="middle" x="3389" y="-6.8" font-family="serif" font-size="9.00">19</text>
</g>
<!-- v19&#45;&gt;s19 -->
<g id="edge43" class="edge">
<title>v19&#45;&gt;s19</title>
<path fill="none" stroke="black" d="M3389,-53.59C3389,-44.98 3389,-32.7 3389,-23.37"/>
<polygon fill="black" stroke="black" points="3389,-18.26 3391.25,-23.26 3389,-20.76 3389,-23.26 3389,-23.26 3389,-23.26 3389,-20.76 3386.75,-23.26 3389,-18.26 3389,-18.26"/>
</g>
<!-- v21 -->
<g id="v21_Building(701830344&#45;Spar)" class="node">
<title>v21</title>
<ellipse fill="none" stroke="black" cx="3653" cy="-65" rx="93.5" ry="11"/>
<text text-anchor="middle" x="3653" y="-62.8" font-family="sans-serif" font-size="9.00">Building(701830344&#45;Spar)</text>
</g>
<!-- v20&#45;&gt;v21 -->
<g id="edge22" class="edge">
<title>v20&#45;&gt;v21</title>
<path fill="none" stroke="black" d="M3768.42,-112.5C3744.5,-102.86 3707.45,-87.94 3681.81,-77.61"/>
<polygon fill="black" stroke="black" points="3677.16,-75.73 3682.64,-75.52 3679.48,-76.67 3681.8,-77.6 3681.8,-77.6 3681.8,-77.6 3679.48,-76.67 3680.96,-79.69 3677.16,-75.73 3677.16,-75.73"/>
</g>
<!-- v22 -->
<g id="v22_Building(701830343&#45;BP Delph Service Station)" class="node">
<title>v22</title>
<ellipse fill="none" stroke="black" cx="3930" cy="-65" rx="165.5" ry="11"/>
<text text-anchor="middle" x="3930" y="-62.8" font-family="sans-serif" font-size="9.00">Building(701830343&#45;BP Delph Service Station)</text>
</g>
<!-- v20&#45;&gt;v22 -->
<g id="edge23" class="edge">
<title>v20&#45;&gt;v22</title>
<path fill="none" stroke="black" d="M3815.41,-112.5C3838.91,-102.96 3875.19,-88.24 3900.61,-77.93"/>
<polygon fill="black" stroke="black" points="3905.54,-75.92 3901.76,-79.89 3903.23,-76.86 3900.91,-77.8 3900.91,-77.8 3900.91,-77.8 3903.23,-76.86 3900.07,-75.72 3905.54,-75.92 3905.54,-75.92"/>
</g>
<!-- s20 -->
<g id="node45" class="node">
<title>s20</title>
<polygon fill="gray" stroke="black" stroke-dasharray="5,2" points="4138.5,-18 4109.5,-18 4109.5,0 4138.5,0 4138.5,-18"/>
<text text-anchor="middle" x="4124" y="-6.8" font-family="serif" font-size="9.00">20</text>
</g>
<!-- v20&#45;&gt;s20 -->
<g id="edge44" class="edge">
<title>v20&#45;&gt;s20</title>
<path fill="none" stroke="black" d="M3861.68,-120.22C3942.36,-116.73 4068.7,-106.43 4104,-76 4119.18,-62.91 4123.06,-38.71 4123.93,-23.53"/>
<polygon fill="black" stroke="black" points="4124.12,-18.39 4126.18,-23.47 4124.03,-20.88 4123.93,-23.38 4123.93,-23.38 4123.93,-23.38 4124.03,-20.88 4121.68,-23.3 4124.12,-18.39 4124.12,-18.39"/>
</g>
<!-- s21 -->
<g id="node46" class="node">
<title>s21</title>
<polygon fill="gray" stroke="black" stroke-dasharray="5,2" points="3667.5,-18 3638.5,-18 3638.5,0 3667.5,0 3667.5,-18"/>
<text text-anchor="middle" x="3653" y="-6.8" font-family="serif" font-size="9.00">21</text>
</g>
<!-- v21&#45;&gt;s21 -->
<g id="edge45" class="edge">
<title>v21&#45;&gt;s21</title>
<path fill="none" stroke="black" d="M3653,-53.59C3653,-44.98 3653,-32.7 3653,-23.37"/>
<polygon fill="black" stroke="black" points="3653,-18.26 3655.25,-23.26 3653,-20.76 3653,-23.26 3653,-23.26 3653,-23.26 3653,-20.76 3650.75,-23.26 3653,-18.26 3653,-18.26"/>
</g>
<!-- s22 -->
<g id="node47" class="node">
<title>s22</title>
<polygon fill="gray" stroke="black" stroke-dasharray="5,2" points="3944.5,-18 3915.5,-18 3915.5,0 3944.5,0 3944.5,-18"/>
<text text-anchor="middle" x="3930" y="-6.8" font-family="serif" font-size="9.00">22</text>
</g>
<!-- v22&#45;&gt;s22 -->
<g id="edge46" class="edge">
<title>v22&#45;&gt;s22</title>
<path fill="none" stroke="black" d="M3930,-53.59C3930,-44.98 3930,-32.7 3930,-23.37"/>
<polygon fill="black" stroke="black" points="3930,-18.26 3932.25,-23.26 3930,-20.76 3930,-23.26 3930,-23.26 3930,-23.26 3930,-20.76 3927.75,-23.26 3930,-18.26 3930,-18.26"/>
</g>
</g>
</svg>
