<?xml version="1.0" encoding="UTF-8" standalone="no"?>
<?xml-stylesheet href="style.css" type="text/css"?>
<!DOCTYPE svg PUBLIC "-//W3C//DTD SVG 1.1//EN"
 "http://www.w3.org/Graphics/SVG/1.1/DTD/svg11.dtd">
<!-- Generated by graphviz version 2.43.0 (0)
 -->
<!-- Title: after Pages: 1 -->
<svg width="536pt" height="312pt"
 viewBox="0.00 0.00 535.50 312.00" xmlns="http://www.w3.org/2000/svg" xmlns:xlink="http://www.w3.org/1999/xlink">
<g id="graph0" class="graph" transform="scale(1 1) rotate(0) translate(4 308)">
<title>after</title>
<polygon fill="white" stroke="transparent" points="-4,4 -4,-308 531.5,-308 531.5,4 -4,4"/>
<!-- r0 -->
<g id="node1" class="node">
<title>r0</title>
<polygon fill="none" stroke="black" stroke-dasharray="5,2" points="474.5,-304 451.5,-304 451.5,-286 474.5,-286 474.5,-304"/>
<text text-anchor="middle" x="463" y="-292.8" font-family="serif" font-size="9.00">0</text>
</g>
<!-- v0 -->
<g id="v0_Boundary()" class="node">
<title>v0</title>
<ellipse fill="none" stroke="black" cx="463" cy="-239" rx="43" ry="11"/>
<text text-anchor="middle" x="463" y="-236.8" font-family="sans-serif" font-size="9.00">Boundary()</text>
</g>
<!-- r0&#45;&gt;v0 -->
<g id="edge1" class="edge">
<title>r0&#45;&gt;v0</title>
<path fill="none" stroke="black" d="M463,-285.56C463,-277.45 463,-265.01 463,-255.18"/>
<polygon fill="black" stroke="black" points="463,-250.03 465.25,-255.03 463,-252.53 463,-255.03 463,-255.03 463,-255.03 463,-252.53 460.75,-255.03 463,-250.03 463,-250.03"/>
</g>
<!-- v1 -->
<g id="v1_Boundary()" class="node">
<title>v1</title>
<ellipse fill="none" stroke="black" cx="428" cy="-181" rx="43" ry="11"/>
<text text-anchor="middle" x="428" y="-178.8" font-family="sans-serif" font-size="9.00">Boundary()</text>
</g>
<!-- v0&#45;&gt;v1 -->
<g id="edge2" class="edge">
<title>v0&#45;&gt;v1</title>
<path fill="none" stroke="black" d="M456.74,-227.99C451.22,-219.15 443.1,-206.16 436.9,-196.24"/>
<polygon fill="black" stroke="black" points="434.2,-191.93 438.76,-194.97 435.53,-194.05 436.85,-196.17 436.85,-196.17 436.85,-196.17 435.53,-194.05 434.95,-197.36 434.2,-191.93 434.2,-191.93"/>
</g>
<!-- s0 -->
<g id="node7" class="node">
<title>s0</title>
<polygon fill="gray" stroke="black" stroke-dasharray="5,2" points="527.5,-18 504.5,-18 504.5,0 527.5,0 527.5,-18"/>
<text text-anchor="middle" x="516" y="-6.8" font-family="serif" font-size="9.00">0</text>
</g>
<!-- v0&#45;&gt;s0 -->
<g id="edge6" class="edge">
<title>v0&#45;&gt;s0</title>
<path fill="none" stroke="black" d="M467.25,-227.92C471.01,-218.7 476.44,-204.62 480,-192 497.52,-129.83 509.68,-53.39 514.13,-23.18"/>
<polygon fill="black" stroke="black" points="514.87,-18.09 516.38,-23.36 514.51,-20.56 514.15,-23.04 514.15,-23.04 514.15,-23.04 514.51,-20.56 511.92,-22.71 514.87,-18.09 514.87,-18.09"/>
</g>
<!-- v2 -->
<g id="v2_Agent" class="node">
<title>v2</title>
<ellipse fill="none" stroke="black" cx="25" cy="-65" rx="25" ry="11"/>
<text text-anchor="middle" x="25" y="-62.8" font-family="sans-serif" font-size="9.00">Agent</text>
</g>
<!-- v1&#45;&gt;v2 -->
<g id="edge3" class="edge">
<title>v1&#45;&gt;v2</title>
<path fill="none" stroke="black" d="M400.66,-172.41C339.42,-155.38 186.6,-112.74 59,-76 55.97,-75.13 52.8,-74.21 49.65,-73.29"/>
<polygon fill="black" stroke="black" points="44.77,-71.85 50.2,-71.1 47.16,-72.56 49.56,-73.26 49.56,-73.26 49.56,-73.26 47.16,-72.56 48.93,-75.42 44.77,-71.85 44.77,-71.85"/>
</g>
<!-- v3 -->
<g id="v3_Street()" class="node">
<title>v3</title>
<ellipse fill="none" stroke="black" cx="411" cy="-123" rx="36" ry="11"/>
<text text-anchor="middle" x="411" y="-120.8" font-family="sans-serif" font-size="9.00">Street()</text>
</g>
<!-- v1&#45;&gt;v3 -->
<g id="edge4" class="edge">
<title>v1&#45;&gt;v3</title>
<path fill="none" stroke="black" d="M424.96,-169.99C422.36,-161.42 418.57,-148.94 415.6,-139.15"/>
<polygon fill="black" stroke="black" points="414.13,-134.3 417.73,-138.43 414.85,-136.7 415.58,-139.09 415.58,-139.09 415.58,-139.09 414.85,-136.7 413.43,-139.74 414.13,-134.3 414.13,-134.3"/>
</g>
<!-- s1 -->
<g id="node8" class="node">
<title>s1</title>
<polygon fill="gray" stroke="black" stroke-dasharray="5,2" points="486.5,-18 463.5,-18 463.5,0 486.5,0 486.5,-18"/>
<text text-anchor="middle" x="475" y="-6.8" font-family="serif" font-size="9.00">1</text>
</g>
<!-- v1&#45;&gt;s1 -->
<g id="edge7" class="edge">
<title>v1&#45;&gt;s1</title>
<path fill="none" stroke="black" d="M435.7,-170C442.18,-161.07 451.13,-147.35 456,-134 470.08,-95.35 473.73,-46.24 474.67,-23.14"/>
<polygon fill="black" stroke="black" points="474.85,-18.1 476.92,-23.18 474.76,-20.6 474.67,-23.1 474.67,-23.1 474.67,-23.1 474.76,-20.6 472.42,-23.02 474.85,-18.1 474.85,-18.1"/>
</g>
<!-- v4 -->
<g id="v4_Building(685011752&#45;Whittlesey Salvation Army)" class="node">
<title>v4</title>
<ellipse fill="none" stroke="black" cx="237" cy="-65" rx="169" ry="11"/>
<text text-anchor="middle" x="237" y="-62.8" font-family="sans-serif" font-size="9.00">Building(685011752&#45;Whittlesey Salvation Army)</text>
</g>
<!-- v3&#45;&gt;v4 -->
<g id="edge5" class="edge">
<title>v3&#45;&gt;v4</title>
<path fill="none" stroke="black" d="M387.89,-114.56C358.38,-105.06 306.99,-88.53 272.49,-77.42"/>
<polygon fill="black" stroke="black" points="267.53,-75.83 272.98,-75.22 269.91,-76.59 272.29,-77.36 272.29,-77.36 272.29,-77.36 269.91,-76.59 271.6,-79.5 267.53,-75.83 267.53,-75.83"/>
</g>
<!-- s2 -->
<g id="node9" class="node">
<title>s2</title>
<polygon fill="gray" stroke="black" stroke-dasharray="5,2" points="445.5,-18 422.5,-18 422.5,0 445.5,0 445.5,-18"/>
<text text-anchor="middle" x="434" y="-6.8" font-family="serif" font-size="9.00">2</text>
</g>
<!-- v3&#45;&gt;s2 -->
<g id="edge8" class="edge">
<title>v3&#45;&gt;s2</title>
<path fill="none" stroke="black" d="M413.12,-111.66C417.32,-91.21 426.69,-45.6 431.31,-23.09"/>
<polygon fill="black" stroke="black" points="432.33,-18.14 433.53,-23.5 431.82,-20.59 431.32,-23.04 431.32,-23.04 431.32,-23.04 431.82,-20.59 429.12,-22.59 432.33,-18.14 432.33,-18.14"/>
</g>
<!-- s3 -->
<g id="node10" class="node">
<title>s3</title>
<polygon fill="gray" stroke="black" stroke-dasharray="5,2" points="248.5,-18 225.5,-18 225.5,0 248.5,0 248.5,-18"/>
<text text-anchor="middle" x="237" y="-6.8" font-family="serif" font-size="9.00">3</text>
</g>
<!-- v4&#45;&gt;s3 -->
<g id="edge9" class="edge">
<title>v4&#45;&gt;s3</title>
<path fill="none" stroke="black" d="M237,-53.59C237,-44.98 237,-32.7 237,-23.37"/>
<polygon fill="black" stroke="black" points="237,-18.26 239.25,-23.26 237,-20.76 237,-23.26 237,-23.26 237,-23.26 237,-20.76 234.75,-23.26 237,-18.26 237,-18.26"/>
</g>
</g>
</svg>
