<?xml version="1.0" encoding="UTF-8" standalone="no"?>
<?xml-stylesheet href="style.css" type="text/css"?>
<!DOCTYPE svg PUBLIC "-//W3C//DTD SVG 1.1//EN"
 "http://www.w3.org/Graphics/SVG/1.1/DTD/svg11.dtd">
<!-- Generated by graphviz version 2.43.0 (0)
 -->
<!-- Title: c Pages: 1 -->
<svg width="120pt" height="196pt"
 viewBox="0.00 0.00 119.50 196.00" xmlns="http://www.w3.org/2000/svg" xmlns:xlink="http://www.w3.org/1999/xlink">
<g id="graph0" class="graph" transform="scale(1 1) rotate(0) translate(4 192)">
<title>c</title>
<polygon fill="white" stroke="transparent" points="-4,4 -4,-192 115.5,-192 115.5,4 -4,4"/>
<!-- r0 -->
<g id="node1" class="node">
<title>r0</title>
<polygon fill="none" stroke="black" stroke-dasharray="5,2" points="79.5,-188 56.5,-188 56.5,-170 79.5,-170 79.5,-188"/>
<text text-anchor="middle" x="68" y="-176.8" font-family="serif" font-size="9.00">0</text>
</g>
<!-- v0 -->
<g id="v0_I" class="node">
<title>v0</title>
<ellipse fill="none" stroke="black" cx="68" cy="-123" rx="11" ry="11"/>
<text text-anchor="middle" x="68" y="-120.8" font-family="sans-serif" font-size="9.00">I</text>
</g>
<!-- r0&#45;&gt;v0 -->
<g id="edge1" class="edge">
<title>r0&#45;&gt;v0</title>
<path fill="none" stroke="black" d="M68,-169.56C68,-161.45 68,-149.01 68,-139.18"/>
<polygon fill="black" stroke="black" points="68,-134.03 70.25,-139.03 68,-136.53 68,-139.03 68,-139.03 68,-139.03 68,-136.53 65.75,-139.03 68,-134.03 68,-134.03"/>
</g>
<!-- v1 -->
<g id="v1_Boundary" class="node">
<title>v1</title>
<ellipse fill="none" stroke="black" cx="36" cy="-65" rx="36" ry="11"/>
<text text-anchor="middle" x="36" y="-62.8" font-family="sans-serif" font-size="9.00">Boundary</text>
</g>
<!-- v0&#45;&gt;v1 -->
<g id="edge2" class="edge">
<title>v0&#45;&gt;v1</title>
<path fill="none" stroke="black" d="M62.86,-113C57.83,-104.21 50.1,-90.68 44.22,-80.39"/>
<polygon fill="black" stroke="black" points="41.67,-75.92 46.1,-79.14 42.91,-78.09 44.15,-80.26 44.15,-80.26 44.15,-80.26 42.91,-78.09 42.2,-81.38 41.67,-75.92 41.67,-75.92"/>
</g>
<!-- s0 -->
<g id="node4" class="node">
<title>s0</title>
<polygon fill="gray" stroke="black" stroke-dasharray="5,2" points="111.5,-18 88.5,-18 88.5,0 111.5,0 111.5,-18"/>
<text text-anchor="middle" x="100" y="-6.8" font-family="serif" font-size="9.00">0</text>
</g>
<!-- v0&#45;&gt;s0 -->
<g id="edge3" class="edge">
<title>v0&#45;&gt;s0</title>
<path fill="none" stroke="black" d="M70.84,-112.06C76.62,-91.84 89.74,-45.91 96.23,-23.21"/>
<polygon fill="black" stroke="black" points="97.65,-18.22 98.44,-23.64 96.96,-20.62 96.28,-23.03 96.28,-23.03 96.28,-23.03 96.96,-20.62 94.11,-22.41 97.65,-18.22 97.65,-18.22"/>
</g>
<!-- s1 -->
<g id="node5" class="node">
<title>s1</title>
<polygon fill="gray" stroke="black" stroke-dasharray="5,2" points="47.5,-18 24.5,-18 24.5,0 47.5,0 47.5,-18"/>
<text text-anchor="middle" x="36" y="-6.8" font-family="serif" font-size="9.00">1</text>
</g>
<!-- v1&#45;&gt;s1 -->
<g id="edge4" class="edge">
<title>v1&#45;&gt;s1</title>
<path fill="none" stroke="black" d="M36,-53.59C36,-44.98 36,-32.7 36,-23.37"/>
<polygon fill="black" stroke="black" points="36,-18.26 38.25,-23.26 36,-20.76 36,-23.26 36,-23.26 36,-23.26 36,-20.76 33.75,-23.26 36,-18.26 36,-18.26"/>
</g>
</g>
</svg>
