<?xml version="1.0" encoding="UTF-8" standalone="no"?>
<?xml-stylesheet href="style.css" type="text/css"?>
<!DOCTYPE svg PUBLIC "-//W3C//DTD SVG 1.1//EN"
 "http://www.w3.org/Graphics/SVG/1.1/DTD/svg11.dtd">
<!-- Generated by graphviz version 2.43.0 (0)
 -->
<!-- Title: b Pages: 1 -->
<svg width="959pt" height="374pt"
 viewBox="0.00 0.00 958.50 374.00" xmlns="http://www.w3.org/2000/svg" xmlns:xlink="http://www.w3.org/1999/xlink">
<g id="graph0" class="graph" transform="scale(1 1) rotate(0) translate(4 370)">
<title>b</title>
<polygon fill="white" stroke="transparent" points="-4,4 -4,-370 954.5,-370 954.5,4 -4,4"/>
<!-- r0 -->
<g id="node1" class="node">
<title>r0</title>
<polygon fill="none" stroke="black" stroke-dasharray="5,2" points="739.5,-366 716.5,-366 716.5,-348 739.5,-348 739.5,-366"/>
<text text-anchor="middle" x="728" y="-354.8" font-family="serif" font-size="9.00">0</text>
</g>
<!-- v0 -->
<g id="v0_Boundary" class="node">
<title>v0</title>
<ellipse fill="none" stroke="black" cx="728" cy="-301" rx="36" ry="11"/>
<text text-anchor="middle" x="728" y="-298.8" font-family="sans-serif" font-size="9.00">Boundary</text>
</g>
<!-- r0&#45;&gt;v0 -->
<g id="edge1" class="edge">
<title>r0&#45;&gt;v0</title>
<path fill="none" stroke="black" d="M728,-347.56C728,-339.45 728,-327.01 728,-317.18"/>
<polygon fill="black" stroke="black" points="728,-312.03 730.25,-317.03 728,-314.53 728,-317.03 728,-317.03 728,-317.03 728,-314.53 725.75,-317.03 728,-312.03 728,-312.03"/>
</g>
<!-- v1 -->
<g id="v1_ID(8&#45;295349&#45;Fenland)" class="node">
<title>v1</title>
<ellipse fill="none" stroke="black" cx="79" cy="-11" rx="79" ry="11"/>
<text text-anchor="middle" x="79" y="-8.8" font-family="sans-serif" font-size="9.00">ID(8&#45;295349&#45;Fenland)</text>
</g>
<!-- v0&#45;&gt;v1 -->
<g id="edge2" class="edge">
<title>v0&#45;&gt;v1</title>
<path fill="none" stroke="black" d="M693.57,-297.64C559.39,-287.98 79,-248.99 79,-186 79,-186 79,-186 79,-126 79,-90.6 79,-49.03 79,-27.18"/>
<polygon fill="black" stroke="black" points="79,-22.06 81.25,-27.06 79,-24.56 79,-27.06 79,-27.06 79,-27.06 79,-24.56 76.75,-27.06 79,-22.06 79,-22.06"/>
</g>
<!-- v2 -->
<g id="v2_Boundary" class="node">
<title>v2</title>
<ellipse fill="none" stroke="black" cx="728" cy="-243" rx="36" ry="11"/>
<text text-anchor="middle" x="728" y="-240.8" font-family="sans-serif" font-size="9.00">Boundary</text>
</g>
<!-- v0&#45;&gt;v2 -->
<g id="edge3" class="edge">
<title>v0&#45;&gt;v2</title>
<path fill="none" stroke="black" d="M728,-289.99C728,-281.49 728,-269.17 728,-259.42"/>
<polygon fill="black" stroke="black" points="728,-254.3 730.25,-259.3 728,-256.8 728,-259.3 728,-259.3 728,-259.3 728,-256.8 725.75,-259.3 728,-254.3 728,-254.3"/>
</g>
<!-- s0 -->
<g id="node12" class="node">
<title>s0</title>
<polygon fill="gray" stroke="black" stroke-dasharray="5,2" points="861.5,-78 838.5,-78 838.5,-60 861.5,-60 861.5,-78"/>
<text text-anchor="middle" x="850" y="-66.8" font-family="serif" font-size="9.00">0</text>
</g>
<!-- v0&#45;&gt;s0 -->
<g id="edge11" class="edge">
<title>v0&#45;&gt;s0</title>
<path fill="none" stroke="black" d="M739.6,-290.4C749.51,-281.72 763.62,-268.15 773,-254 811.7,-195.61 837.32,-114.6 846.37,-83.19"/>
<polygon fill="black" stroke="black" points="847.77,-78.25 848.57,-83.67 847.09,-80.65 846.4,-83.06 846.4,-83.06 846.4,-83.06 847.09,-80.65 844.24,-82.44 847.77,-78.25 847.77,-78.25"/>
</g>
<!-- v3 -->
<g id="v3_ID(10&#45;1609095&#45;Whittlesey)" class="node">
<title>v3</title>
<ellipse fill="none" stroke="black" cx="273" cy="-11" rx="97" ry="11"/>
<text text-anchor="middle" x="273" y="-8.8" font-family="sans-serif" font-size="9.00">ID(10&#45;1609095&#45;Whittlesey)</text>
</g>
<!-- v2&#45;&gt;v3 -->
<g id="edge4" class="edge">
<title>v2&#45;&gt;v3</title>
<path fill="none" stroke="black" d="M710.72,-233.26C640.77,-197.91 378.51,-65.33 297.19,-24.23"/>
<polygon fill="black" stroke="black" points="292.55,-21.88 298.03,-22.13 294.78,-23.01 297.02,-24.14 297.02,-24.14 297.02,-24.14 294.78,-23.01 296,-26.15 292.55,-21.88 292.55,-21.88"/>
</g>
<!-- v4 -->
<g id="v4_Street" class="node">
<title>v4</title>
<ellipse fill="none" stroke="black" cx="728" cy="-185" rx="29" ry="11"/>
<text text-anchor="middle" x="728" y="-182.8" font-family="sans-serif" font-size="9.00">Street</text>
</g>
<!-- v2&#45;&gt;v4 -->
<g id="edge5" class="edge">
<title>v2&#45;&gt;v4</title>
<path fill="none" stroke="black" d="M728,-231.99C728,-223.49 728,-211.17 728,-201.42"/>
<polygon fill="black" stroke="black" points="728,-196.3 730.25,-201.3 728,-198.8 728,-201.3 728,-201.3 728,-201.3 728,-198.8 725.75,-201.3 728,-196.3 728,-196.3"/>
</g>
<!-- s1 -->
<g id="node13" class="node">
<title>s1</title>
<polygon fill="gray" stroke="black" stroke-dasharray="5,2" points="820.5,-78 797.5,-78 797.5,-60 820.5,-60 820.5,-78"/>
<text text-anchor="middle" x="809" y="-66.8" font-family="serif" font-size="9.00">1</text>
</g>
<!-- v2&#45;&gt;s1 -->
<g id="edge12" class="edge">
<title>v2&#45;&gt;s1</title>
<path fill="none" stroke="black" d="M737.92,-232.2C746.36,-223.38 758.32,-209.74 766,-196 787.4,-157.71 800.7,-106.94 806.15,-83.24"/>
<polygon fill="black" stroke="black" points="807.31,-78.08 808.41,-83.46 806.76,-80.52 806.22,-82.96 806.22,-82.96 806.22,-82.96 806.76,-80.52 804.02,-82.47 807.31,-78.08 807.31,-78.08"/>
</g>
<!-- v5 -->
<g id="v5_Building" class="node">
<title>v5</title>
<ellipse fill="none" stroke="black" cx="656" cy="-127" rx="36" ry="11"/>
<text text-anchor="middle" x="656" y="-124.8" font-family="sans-serif" font-size="9.00">Building</text>
</g>
<!-- v4&#45;&gt;v5 -->
<g id="edge6" class="edge">
<title>v4&#45;&gt;v5</title>
<path fill="none" stroke="black" d="M716.11,-174.75C704.09,-165.41 685.44,-150.9 672.1,-140.52"/>
<polygon fill="black" stroke="black" points="668.15,-137.45 673.48,-138.74 670.12,-138.98 672.09,-140.52 672.09,-140.52 672.09,-140.52 670.12,-138.98 670.71,-142.29 668.15,-137.45 668.15,-137.45"/>
</g>
<!-- v7 -->
<g id="v7_ID(Church Street)" class="node">
<title>v7</title>
<ellipse fill="none" stroke="black" cx="882" cy="-11" rx="68.5" ry="11"/>
<text text-anchor="middle" x="882" y="-8.8" font-family="sans-serif" font-size="9.00">ID(Church Street)</text>
</g>
<!-- v4&#45;&gt;v7 -->
<g id="edge7" class="edge">
<title>v4&#45;&gt;v7</title>
<path fill="none" stroke="black" d="M726.31,-173.78C723.04,-150.34 718.49,-92.12 747,-58 765.38,-36 794.76,-24.49 821.42,-18.48"/>
<polygon fill="black" stroke="black" points="826.36,-17.42 821.94,-20.67 823.91,-17.95 821.47,-18.47 821.47,-18.47 821.47,-18.47 823.91,-17.95 821,-16.27 826.36,-17.42 826.36,-17.42"/>
</g>
<!-- s2 -->
<g id="node14" class="node">
<title>s2</title>
<polygon fill="gray" stroke="black" stroke-dasharray="5,2" points="779.5,-78 756.5,-78 756.5,-60 779.5,-60 779.5,-78"/>
<text text-anchor="middle" x="768" y="-66.8" font-family="serif" font-size="9.00">2</text>
</g>
<!-- v4&#45;&gt;s2 -->
<g id="edge13" class="edge">
<title>v4&#45;&gt;s2</title>
<path fill="none" stroke="black" d="M731.55,-173.88C738.84,-153.11 755.48,-105.69 763.5,-82.81"/>
<polygon fill="black" stroke="black" points="765.17,-78.07 765.64,-83.53 764.34,-80.42 763.51,-82.78 763.51,-82.78 763.51,-82.78 764.34,-80.42 761.39,-82.04 765.17,-78.07 765.17,-78.07"/>
</g>
<!-- v6 -->
<g id="v6_Agent" class="node">
<title>v6</title>
<ellipse fill="none" stroke="black" cx="515" cy="-69" rx="25" ry="11"/>
<text text-anchor="middle" x="515" y="-66.8" font-family="sans-serif" font-size="9.00">Agent</text>
</g>
<!-- v5&#45;&gt;v6 -->
<g id="edge8" class="edge">
<title>v5&#45;&gt;v6</title>
<path fill="none" stroke="black" d="M635.5,-117.86C609.32,-107.46 564.21,-89.54 537.23,-78.83"/>
<polygon fill="black" stroke="black" points="532.42,-76.92 537.89,-76.67 534.74,-77.84 537.06,-78.76 537.06,-78.76 537.06,-78.76 534.74,-77.84 536.23,-80.85 532.42,-76.92 532.42,-76.92"/>
</g>
<!-- v8 -->
<g id="v8_ID(685011752&#45;Whittlesey Salvation Army)" class="node">
<title>v8</title>
<ellipse fill="none" stroke="black" cx="648" cy="-11" rx="147.5" ry="11"/>
<text text-anchor="middle" x="648" y="-8.8" font-family="sans-serif" font-size="9.00">ID(685011752&#45;Whittlesey Salvation Army)</text>
</g>
<!-- v5&#45;&gt;v8 -->
<g id="edge9" class="edge">
<title>v5&#45;&gt;v8</title>
<path fill="none" stroke="black" d="M655.29,-115.88C653.89,-95.91 650.76,-51.28 649.09,-27.54"/>
<polygon fill="black" stroke="black" points="648.72,-22.26 651.31,-27.09 648.89,-24.75 649.07,-27.25 649.07,-27.25 649.07,-27.25 648.89,-24.75 646.83,-27.4 648.72,-22.26 648.72,-22.26"/>
</g>
<!-- s3 -->
<g id="node15" class="node">
<title>s3</title>
<polygon fill="gray" stroke="black" stroke-dasharray="5,2" points="699.5,-78 676.5,-78 676.5,-60 699.5,-60 699.5,-78"/>
<text text-anchor="middle" x="688" y="-66.8" font-family="serif" font-size="9.00">3</text>
</g>
<!-- v5&#45;&gt;s3 -->
<g id="edge14" class="edge">
<title>v5&#45;&gt;s3</title>
<path fill="none" stroke="black" d="M661.72,-115.99C667.04,-106.69 674.97,-92.8 680.73,-82.71"/>
<polygon fill="black" stroke="black" points="683.37,-78.11 682.84,-83.57 682.13,-80.28 680.89,-82.45 680.89,-82.45 680.89,-82.45 682.13,-80.28 678.93,-81.33 683.37,-78.11 683.37,-78.11"/>
</g>
<!-- v9 -->
<g id="v9_ID(agent 1)" class="node">
<title>v9</title>
<ellipse fill="none" stroke="black" cx="435" cy="-11" rx="47" ry="11"/>
<text text-anchor="middle" x="435" y="-8.8" font-family="sans-serif" font-size="9.00">ID(agent 1)</text>
</g>
<!-- v6&#45;&gt;v9 -->
<g id="edge10" class="edge">
<title>v6&#45;&gt;v9</title>
<path fill="none" stroke="black" d="M502.5,-59.25C489.28,-49.99 468.29,-35.3 453.22,-24.76"/>
<polygon fill="black" stroke="black" points="448.75,-21.63 454.14,-22.65 450.8,-23.06 452.85,-24.49 452.85,-24.49 452.85,-24.49 450.8,-23.06 451.56,-26.34 448.75,-21.63 448.75,-21.63"/>
</g>
</g>
</svg>
