<?xml version="1.0" encoding="UTF-8" standalone="no"?>
<?xml-stylesheet href="style.css" type="text/css"?>
<!DOCTYPE svg PUBLIC "-//W3C//DTD SVG 1.1//EN"
 "http://www.w3.org/Graphics/SVG/1.1/DTD/svg11.dtd">
<!-- Generated by graphviz version 2.43.0 (0)
 -->
<!-- Title: b Pages: 1 -->
<svg width="1107pt" height="316pt"
 viewBox="0.00 0.00 1106.50 316.00" xmlns="http://www.w3.org/2000/svg" xmlns:xlink="http://www.w3.org/1999/xlink">
<g id="graph0" class="graph" transform="scale(1 1) rotate(0) translate(4 312)">
<title>b</title>
<polygon fill="white" stroke="transparent" points="-4,4 -4,-312 1102.5,-312 1102.5,4 -4,4"/>
<!-- r0 -->
<g id="node1" class="node">
<title>r0</title>
<polygon fill="none" stroke="black" stroke-dasharray="5,2" points="960,-308 937,-308 937,-290 960,-290 960,-308"/>
<text text-anchor="middle" x="948.5" y="-296.8" font-family="serif" font-size="9.00">0</text>
</g>
<!-- v0 -->
<g id="v0_Boundary" class="node">
<title>v0</title>
<ellipse fill="none" stroke="black" cx="916.5" cy="-243" rx="36" ry="11"/>
<text text-anchor="middle" x="916.5" y="-240.8" font-family="sans-serif" font-size="9.00">Boundary</text>
</g>
<!-- r0&#45;&gt;v0 -->
<g id="edge1" class="edge">
<title>r0&#45;&gt;v0</title>
<path fill="none" stroke="black" d="M943.5,-289.56C938.56,-281.23 930.91,-268.32 925.01,-258.37"/>
<polygon fill="black" stroke="black" points="922.44,-254.03 926.93,-257.18 923.72,-256.18 924.99,-258.33 924.99,-258.33 924.99,-258.33 923.72,-256.18 923.06,-259.48 922.44,-254.03 922.44,-254.03"/>
</g>
<!-- v1 -->
<g id="v1_Agent" class="node">
<title>v1</title>
<ellipse fill="none" stroke="black" cx="1073.5" cy="-69" rx="25" ry="11"/>
<text text-anchor="middle" x="1073.5" y="-66.8" font-family="sans-serif" font-size="9.00">Agent</text>
</g>
<!-- r0&#45;&gt;v1 -->
<g id="edge2" class="edge">
<title>r0&#45;&gt;v1</title>
<path fill="none" stroke="black" d="M952.95,-289.89C971.37,-256.28 1041.85,-127.73 1065.62,-84.37"/>
<polygon fill="black" stroke="black" points="1068.15,-79.75 1067.72,-85.22 1066.95,-81.94 1065.75,-84.14 1065.75,-84.14 1065.75,-84.14 1066.95,-81.94 1063.78,-83.05 1068.15,-79.75 1068.15,-79.75"/>
</g>
<!-- e0 -->
<g id="node2" class="node">
<title>e0</title>
</g>
<!-- e0&#45;&gt;v1 -->
<g id="edge15" class="edge">
<title>e0&#45;&gt;v1</title>
<path fill="none" stroke="green" d="M1073.5,-122.17C1073.5,-113.59 1073.5,-92.6 1073.5,-80.01"/>
<polygon fill="green" stroke="green" points="1077,-125.3 1070,-125.3 1070,-123.9 1077,-123.9 1077,-125.3"/>
<polyline fill="none" stroke="green" points="1073.5,-126 1073.5,-122.5 "/>
</g>
<!-- v2 -->
<g id="v2_ID(6&#45;180837&#45;Cambridgeshire)" class="node">
<title>v2</title>
<ellipse fill="none" stroke="black" cx="104.5" cy="-11" rx="104.5" ry="11"/>
<text text-anchor="middle" x="104.5" y="-8.8" font-family="sans-serif" font-size="9.00">ID(6&#45;180837&#45;Cambridgeshire)</text>
</g>
<!-- v0&#45;&gt;v2 -->
<g id="edge3" class="edge">
<title>v0&#45;&gt;v2</title>
<path fill="none" stroke="black" d="M891.76,-234.99C775.65,-202.1 284.62,-63.02 142.93,-22.88"/>
<polygon fill="black" stroke="black" points="138.03,-21.5 143.46,-20.7 140.44,-22.18 142.85,-22.86 142.85,-22.86 142.85,-22.86 140.44,-22.18 142.23,-25.03 138.03,-21.5 138.03,-21.5"/>
</g>
<!-- v3 -->
<g id="v3_Boundary" class="node">
<title>v3</title>
<ellipse fill="none" stroke="black" cx="883.5" cy="-185" rx="36" ry="11"/>
<text text-anchor="middle" x="883.5" y="-182.8" font-family="sans-serif" font-size="9.00">Boundary</text>
</g>
<!-- v0&#45;&gt;v3 -->
<g id="edge4" class="edge">
<title>v0&#45;&gt;v3</title>
<path fill="none" stroke="black" d="M910.6,-231.99C905.39,-223.15 897.74,-210.16 891.89,-200.24"/>
<polygon fill="black" stroke="black" points="889.35,-195.93 893.83,-199.09 890.62,-198.08 891.89,-200.23 891.89,-200.23 891.89,-200.23 890.62,-198.08 889.95,-201.38 889.35,-195.93 889.35,-195.93"/>
</g>
<!-- s0 -->
<g id="node13" class="node">
<title>s0</title>
<polygon fill="gray" stroke="black" stroke-dasharray="5,2" points="1020,-20 997,-20 997,-2 1020,-2 1020,-20"/>
<text text-anchor="middle" x="1008.5" y="-8.8" font-family="serif" font-size="9.00">0</text>
</g>
<!-- v0&#45;&gt;s0 -->
<g id="edge11" class="edge">
<title>v0&#45;&gt;s0</title>
<path fill="none" stroke="black" d="M920.57,-231.82C935.45,-194.64 986.83,-66.18 1003.34,-24.89"/>
<polygon fill="black" stroke="black" points="1005.27,-20.08 1005.5,-25.56 1004.34,-22.4 1003.41,-24.73 1003.41,-24.73 1003.41,-24.73 1004.34,-22.4 1001.32,-23.89 1005.27,-20.08 1005.27,-20.08"/>
</g>
<!-- v9 -->
<g id="v9_ID(A)" class="node">
<title>v9</title>
<ellipse fill="none" stroke="black" cx="1073.5" cy="-11" rx="25" ry="11"/>
<text text-anchor="middle" x="1073.5" y="-8.8" font-family="sans-serif" font-size="9.00">ID(A)</text>
</g>
<!-- v1&#45;&gt;v9 -->
<g id="edge5" class="edge">
<title>v1&#45;&gt;v9</title>
<path fill="none" stroke="black" d="M1073.5,-57.99C1073.5,-49.49 1073.5,-37.17 1073.5,-27.42"/>
<polygon fill="black" stroke="black" points="1073.5,-22.3 1075.75,-27.3 1073.5,-24.8 1073.5,-27.3 1073.5,-27.3 1073.5,-27.3 1073.5,-24.8 1071.25,-27.3 1073.5,-22.3 1073.5,-22.3"/>
</g>
<!-- v4 -->
<g id="v4_Street" class="node">
<title>v4</title>
<ellipse fill="none" stroke="black" cx="675.5" cy="-127" rx="29" ry="11"/>
<text text-anchor="middle" x="675.5" y="-124.8" font-family="sans-serif" font-size="9.00">Street</text>
</g>
<!-- v3&#45;&gt;v4 -->
<g id="edge6" class="edge">
<title>v3&#45;&gt;v4</title>
<path fill="none" stroke="black" d="M858,-177.13C818.75,-166.57 743.86,-146.4 703.28,-135.48"/>
<polygon fill="black" stroke="black" points="698.03,-134.07 703.44,-133.19 700.45,-134.72 702.86,-135.37 702.86,-135.37 702.86,-135.37 700.45,-134.72 702.27,-137.54 698.03,-134.07 698.03,-134.07"/>
</g>
<!-- v5 -->
<g id="v5_ID(8&#45;295355&#45;Cambridge)" class="node">
<title>v5</title>
<ellipse fill="none" stroke="black" cx="851.5" cy="-11" rx="86.5" ry="11"/>
<text text-anchor="middle" x="851.5" y="-8.8" font-family="sans-serif" font-size="9.00">ID(8&#45;295355&#45;Cambridge)</text>
</g>
<!-- v3&#45;&gt;v5 -->
<g id="edge7" class="edge">
<title>v3&#45;&gt;v5</title>
<path fill="none" stroke="black" d="M881.64,-174.01C876.27,-145.15 860.72,-61.56 854.31,-27.11"/>
<polygon fill="black" stroke="black" points="853.36,-22.02 856.49,-26.52 853.82,-24.48 854.28,-26.93 854.28,-26.93 854.28,-26.93 853.82,-24.48 852.07,-27.35 853.36,-22.02 853.36,-22.02"/>
</g>
<!-- s1 -->
<g id="node14" class="node">
<title>s1</title>
<polygon fill="gray" stroke="black" stroke-dasharray="5,2" points="979,-20 956,-20 956,-2 979,-2 979,-20"/>
<text text-anchor="middle" x="967.5" y="-8.8" font-family="serif" font-size="9.00">1</text>
</g>
<!-- v3&#45;&gt;s1 -->
<g id="edge12" class="edge">
<title>v3&#45;&gt;s1</title>
<path fill="none" stroke="black" d="M888.38,-174.01C902.74,-144.61 944.85,-58.38 961.05,-25.21"/>
<polygon fill="black" stroke="black" points="963.42,-20.36 963.24,-25.84 962.32,-22.61 961.22,-24.85 961.22,-24.85 961.22,-24.85 962.32,-22.61 959.2,-23.87 963.42,-20.36 963.42,-20.36"/>
</g>
<!-- v6 -->
<g id="v6_Building" class="node">
<title>v6</title>
<ellipse fill="none" stroke="black" cx="495.5" cy="-69" rx="36" ry="11"/>
<text text-anchor="middle" x="495.5" y="-66.8" font-family="sans-serif" font-size="9.00">Building</text>
</g>
<!-- v4&#45;&gt;v6 -->
<g id="edge8" class="edge">
<title>v4&#45;&gt;v6</title>
<path fill="none" stroke="black" d="M654.14,-119.36C621.84,-109.3 560.47,-90.21 524.26,-78.95"/>
<polygon fill="black" stroke="black" points="519.11,-77.34 524.55,-76.68 521.49,-78.09 523.88,-78.83 523.88,-78.83 523.88,-78.83 521.49,-78.09 523.21,-80.98 519.11,-77.34 519.11,-77.34"/>
</g>
<!-- v7 -->
<g id="v7_ID(J J Thompson Avenue)" class="node">
<title>v7</title>
<ellipse fill="none" stroke="black" cx="615.5" cy="-11" rx="90" ry="11"/>
<text text-anchor="middle" x="615.5" y="-8.8" font-family="sans-serif" font-size="9.00">ID(J J Thompson Avenue)</text>
</g>
<!-- v4&#45;&gt;v7 -->
<g id="edge9" class="edge">
<title>v4&#45;&gt;v7</title>
<path fill="none" stroke="black" d="M670.18,-115.88C659.57,-95.74 635.77,-50.52 623.37,-26.94"/>
<polygon fill="black" stroke="black" points="620.9,-22.26 625.22,-25.63 622.06,-24.47 623.23,-26.68 623.23,-26.68 623.23,-26.68 622.06,-24.47 621.24,-27.73 620.9,-22.26 620.9,-22.26"/>
</g>
<!-- s2 -->
<g id="node15" class="node">
<title>s2</title>
<polygon fill="gray" stroke="black" stroke-dasharray="5,2" points="747,-20 724,-20 724,-2 747,-2 747,-20"/>
<text text-anchor="middle" x="735.5" y="-8.8" font-family="serif" font-size="9.00">2</text>
</g>
<!-- v4&#45;&gt;s2 -->
<g id="edge13" class="edge">
<title>v4&#45;&gt;s2</title>
<path fill="none" stroke="black" d="M680.82,-115.88C691.8,-95.03 716.92,-47.29 728.91,-24.53"/>
<polygon fill="black" stroke="black" points="731.25,-20.07 730.92,-25.54 730.09,-22.28 728.93,-24.49 728.93,-24.49 728.93,-24.49 730.09,-22.28 726.93,-23.44 731.25,-20.07 731.25,-20.07"/>
</g>
<!-- v8 -->
<g id="v8_ID(8388&#45;William Gates Building)" class="node">
<title>v8</title>
<ellipse fill="none" stroke="black" cx="346.5" cy="-11" rx="119" ry="11"/>
<text text-anchor="middle" x="346.5" y="-8.8" font-family="sans-serif" font-size="9.00">ID(8388&#45;William Gates Building)</text>
</g>
<!-- v6&#45;&gt;v8 -->
<g id="edge10" class="edge">
<title>v6&#45;&gt;v8</title>
<path fill="none" stroke="black" d="M474.15,-59.98C448.82,-50.46 406.39,-34.51 377.45,-23.63"/>
<polygon fill="black" stroke="black" points="372.57,-21.8 378.04,-21.45 374.91,-22.68 377.25,-23.56 377.25,-23.56 377.25,-23.56 374.91,-22.68 376.46,-25.66 372.57,-21.8 372.57,-21.8"/>
</g>
<!-- s3 -->
<g id="node16" class="node">
<title>s3</title>
<polygon fill="gray" stroke="black" stroke-dasharray="5,2" points="507,-20 484,-20 484,-2 507,-2 507,-20"/>
<text text-anchor="middle" x="495.5" y="-8.8" font-family="serif" font-size="9.00">3</text>
</g>
<!-- v6&#45;&gt;s3 -->
<g id="edge14" class="edge">
<title>v6&#45;&gt;s3</title>
<path fill="none" stroke="black" d="M495.5,-57.99C495.5,-48.86 495.5,-35.3 495.5,-25.27"/>
<polygon fill="black" stroke="black" points="495.5,-20.11 497.75,-25.11 495.5,-22.61 495.5,-25.11 495.5,-25.11 495.5,-25.11 495.5,-22.61 493.25,-25.11 495.5,-20.11 495.5,-20.11"/>
</g>
</g>
</svg>
