<?xml version="1.0" encoding="UTF-8" standalone="no"?>
<?xml-stylesheet href="style.css" type="text/css"?>
<!DOCTYPE svg PUBLIC "-//W3C//DTD SVG 1.1//EN"
 "http://www.w3.org/Graphics/SVG/1.1/DTD/svg11.dtd">
<!-- Generated by graphviz version 2.43.0 (0)
 -->
<!-- Title: b Pages: 1 -->
<svg width="1097pt" height="316pt"
 viewBox="0.00 0.00 1097.00 316.00" xmlns="http://www.w3.org/2000/svg" xmlns:xlink="http://www.w3.org/1999/xlink">
<g id="graph0" class="graph" transform="scale(1 1) rotate(0) translate(4 312)">
<title>b</title>
<polygon fill="white" stroke="transparent" points="-4,4 -4,-312 1093,-312 1093,4 -4,4"/>
<!-- r0 -->
<g id="node1" class="node">
<title>r0</title>
<polygon fill="none" stroke="black" stroke-dasharray="5,2" points="889,-308 866,-308 866,-290 889,-290 889,-308"/>
<text text-anchor="middle" x="877.5" y="-296.8" font-family="serif" font-size="9.00">0</text>
</g>
<!-- v0 -->
<g id="v0_Boundary" class="node">
<title>v0</title>
<ellipse fill="none" stroke="black" cx="877.5" cy="-243" rx="36" ry="11"/>
<text text-anchor="middle" x="877.5" y="-240.8" font-family="sans-serif" font-size="9.00">Boundary</text>
</g>
<!-- r0&#45;&gt;v0 -->
<g id="edge1" class="edge">
<title>r0&#45;&gt;v0</title>
<path fill="none" stroke="black" d="M877.5,-289.56C877.5,-281.45 877.5,-269.01 877.5,-259.18"/>
<polygon fill="black" stroke="black" points="877.5,-254.03 879.75,-259.03 877.5,-256.53 877.5,-259.03 877.5,-259.03 877.5,-259.03 877.5,-256.53 875.25,-259.03 877.5,-254.03 877.5,-254.03"/>
</g>
<!-- e0 -->
<g id="node2" class="node">
<title>e0</title>
</g>
<!-- v4 -->
<g id="v4_Agent" class="node">
<title>v4</title>
<ellipse fill="none" stroke="black" cx="827.5" cy="-69" rx="25" ry="11"/>
<text text-anchor="middle" x="827.5" y="-66.8" font-family="sans-serif" font-size="9.00">Agent</text>
</g>
<!-- e0&#45;&gt;v4 -->
<g id="edge15" class="edge">
<title>e0&#45;&gt;v4</title>
<path fill="none" stroke="green" d="M827.5,-122.17C827.5,-113.59 827.5,-92.6 827.5,-80.01"/>
<polygon fill="green" stroke="green" points="831,-125.3 824,-125.3 824,-123.9 831,-123.9 831,-125.3"/>
<polyline fill="none" stroke="green" points="827.5,-126 827.5,-122.5 "/>
</g>
<!-- v1 -->
<g id="v1_ID(6&#45;180837&#45;Cambridgeshire)" class="node">
<title>v1</title>
<ellipse fill="none" stroke="black" cx="104.5" cy="-11" rx="104.5" ry="11"/>
<text text-anchor="middle" x="104.5" y="-8.8" font-family="sans-serif" font-size="9.00">ID(6&#45;180837&#45;Cambridgeshire)</text>
</g>
<!-- v0&#45;&gt;v1 -->
<g id="edge2" class="edge">
<title>v0&#45;&gt;v1</title>
<path fill="none" stroke="black" d="M853.09,-234.74C741.22,-201.45 277.25,-63.4 141.79,-23.09"/>
<polygon fill="black" stroke="black" points="136.73,-21.59 142.16,-20.86 139.12,-22.3 141.52,-23.01 141.52,-23.01 141.52,-23.01 139.12,-22.3 140.88,-25.17 136.73,-21.59 136.73,-21.59"/>
</g>
<!-- v2 -->
<g id="v2_Boundary" class="node">
<title>v2</title>
<ellipse fill="none" stroke="black" cx="877.5" cy="-185" rx="36" ry="11"/>
<text text-anchor="middle" x="877.5" y="-182.8" font-family="sans-serif" font-size="9.00">Boundary</text>
</g>
<!-- v0&#45;&gt;v2 -->
<g id="edge3" class="edge">
<title>v0&#45;&gt;v2</title>
<path fill="none" stroke="black" d="M877.5,-231.99C877.5,-223.49 877.5,-211.17 877.5,-201.42"/>
<polygon fill="black" stroke="black" points="877.5,-196.3 879.75,-201.3 877.5,-198.8 877.5,-201.3 877.5,-201.3 877.5,-201.3 877.5,-198.8 875.25,-201.3 877.5,-196.3 877.5,-196.3"/>
</g>
<!-- s0 -->
<g id="node13" class="node">
<title>s0</title>
<polygon fill="gray" stroke="black" stroke-dasharray="5,2" points="1089,-20 1066,-20 1066,-2 1089,-2 1089,-20"/>
<text text-anchor="middle" x="1077.5" y="-8.8" font-family="serif" font-size="9.00">0</text>
</g>
<!-- v0&#45;&gt;s0 -->
<g id="edge11" class="edge">
<title>v0&#45;&gt;s0</title>
<path fill="none" stroke="black" d="M887.37,-232.33C896.64,-223.16 910.78,-208.9 922.5,-196 979.5,-133.22 1043.57,-54.3 1067.65,-24.32"/>
<polygon fill="black" stroke="black" points="1070.91,-20.26 1069.54,-25.56 1069.35,-22.21 1067.78,-24.16 1067.78,-24.16 1067.78,-24.16 1069.35,-22.21 1066.03,-22.75 1070.91,-20.26 1070.91,-20.26"/>
</g>
<!-- v3 -->
<g id="v3_Street" class="node">
<title>v3</title>
<ellipse fill="none" stroke="black" cx="697.5" cy="-127" rx="29" ry="11"/>
<text text-anchor="middle" x="697.5" y="-124.8" font-family="sans-serif" font-size="9.00">Street</text>
</g>
<!-- v2&#45;&gt;v3 -->
<g id="edge4" class="edge">
<title>v2&#45;&gt;v3</title>
<path fill="none" stroke="black" d="M853.6,-176.56C819.87,-166.07 758.55,-146.99 723.65,-136.13"/>
<polygon fill="black" stroke="black" points="718.7,-134.59 724.14,-133.93 721.08,-135.34 723.47,-136.08 723.47,-136.08 723.47,-136.08 721.08,-135.34 722.8,-138.23 718.7,-134.59 718.7,-134.59"/>
</g>
<!-- v2&#45;&gt;v4 -->
<g id="edge5" class="edge">
<title>v2&#45;&gt;v4</title>
<path fill="none" stroke="black" d="M858.77,-175.49C844.55,-167.9 826.04,-155.3 817.5,-138 809.22,-121.23 814.83,-99.5 820.42,-85.17"/>
<polygon fill="black" stroke="black" points="822.46,-80.25 822.63,-85.73 821.5,-82.56 820.55,-84.87 820.55,-84.87 820.55,-84.87 821.5,-82.56 818.47,-84.02 822.46,-80.25 822.46,-80.25"/>
</g>
<!-- v5 -->
<g id="v5_ID(8&#45;295355&#45;Cambridge)" class="node">
<title>v5</title>
<ellipse fill="none" stroke="black" cx="920.5" cy="-11" rx="86.5" ry="11"/>
<text text-anchor="middle" x="920.5" y="-8.8" font-family="sans-serif" font-size="9.00">ID(8&#45;295355&#45;Cambridge)</text>
</g>
<!-- v2&#45;&gt;v5 -->
<g id="edge6" class="edge">
<title>v2&#45;&gt;v5</title>
<path fill="none" stroke="black" d="M880,-174.01C887.21,-145.15 908.11,-61.56 916.72,-27.11"/>
<polygon fill="black" stroke="black" points="918,-22.02 918.97,-27.41 917.39,-24.44 916.78,-26.87 916.78,-26.87 916.78,-26.87 917.39,-24.44 914.6,-26.32 918,-22.02 918,-22.02"/>
</g>
<!-- s1 -->
<g id="node14" class="node">
<title>s1</title>
<polygon fill="gray" stroke="black" stroke-dasharray="5,2" points="1048,-20 1025,-20 1025,-2 1048,-2 1048,-20"/>
<text text-anchor="middle" x="1036.5" y="-8.8" font-family="serif" font-size="9.00">1</text>
</g>
<!-- v2&#45;&gt;s1 -->
<g id="edge12" class="edge">
<title>v2&#45;&gt;s1</title>
<path fill="none" stroke="black" d="M886.5,-174.26C913.79,-144.74 995.52,-56.33 1025.4,-24.01"/>
<polygon fill="black" stroke="black" points="1029.1,-20 1027.36,-25.2 1027.41,-21.84 1025.71,-23.67 1025.71,-23.67 1025.71,-23.67 1027.41,-21.84 1024.06,-22.15 1029.1,-20 1029.1,-20"/>
</g>
<!-- v6 -->
<g id="v6_Building" class="node">
<title>v6</title>
<ellipse fill="none" stroke="black" cx="495.5" cy="-69" rx="36" ry="11"/>
<text text-anchor="middle" x="495.5" y="-66.8" font-family="sans-serif" font-size="9.00">Building</text>
</g>
<!-- v3&#45;&gt;v6 -->
<g id="edge7" class="edge">
<title>v3&#45;&gt;v6</title>
<path fill="none" stroke="black" d="M675.11,-119.79C638.59,-109.67 566.18,-89.59 525.33,-78.27"/>
<polygon fill="black" stroke="black" points="520.51,-76.93 525.93,-76.1 522.92,-77.6 525.33,-78.27 525.33,-78.27 525.33,-78.27 522.92,-77.6 524.73,-80.44 520.51,-76.93 520.51,-76.93"/>
</g>
<!-- v7 -->
<g id="v7_ID(J J Thompson Avenue)" class="node">
<title>v7</title>
<ellipse fill="none" stroke="black" cx="615.5" cy="-11" rx="90" ry="11"/>
<text text-anchor="middle" x="615.5" y="-8.8" font-family="sans-serif" font-size="9.00">ID(J J Thompson Avenue)</text>
</g>
<!-- v3&#45;&gt;v7 -->
<g id="edge8" class="edge">
<title>v3&#45;&gt;v7</title>
<path fill="none" stroke="black" d="M690.51,-116.28C676,-96.11 642.56,-49.61 625.66,-26.13"/>
<polygon fill="black" stroke="black" points="622.71,-22.02 627.45,-24.77 624.17,-24.05 625.63,-26.08 625.63,-26.08 625.63,-26.08 624.17,-24.05 623.8,-27.39 622.71,-22.02 622.71,-22.02"/>
</g>
<!-- s2 -->
<g id="node15" class="node">
<title>s2</title>
<polygon fill="gray" stroke="black" stroke-dasharray="5,2" points="747,-20 724,-20 724,-2 747,-2 747,-20"/>
<text text-anchor="middle" x="735.5" y="-8.8" font-family="serif" font-size="9.00">2</text>
</g>
<!-- v3&#45;&gt;s2 -->
<g id="edge13" class="edge">
<title>v3&#45;&gt;s2</title>
<path fill="none" stroke="black" d="M700.87,-115.88C707.8,-95.11 723.6,-47.69 731.23,-24.81"/>
<polygon fill="black" stroke="black" points="732.81,-20.07 733.36,-25.52 732.02,-22.44 731.23,-24.81 731.23,-24.81 731.23,-24.81 732.02,-22.44 729.1,-24.1 732.81,-20.07 732.81,-20.07"/>
</g>
<!-- v9 -->
<g id="v9_ID(A)" class="node">
<title>v9</title>
<ellipse fill="none" stroke="black" cx="790.5" cy="-11" rx="25" ry="11"/>
<text text-anchor="middle" x="790.5" y="-8.8" font-family="sans-serif" font-size="9.00">ID(A)</text>
</g>
<!-- v4&#45;&gt;v9 -->
<g id="edge9" class="edge">
<title>v4&#45;&gt;v9</title>
<path fill="none" stroke="black" d="M821.06,-58.25C815.17,-49.33 806.39,-36.05 799.75,-26"/>
<polygon fill="black" stroke="black" points="796.87,-21.64 801.5,-24.57 798.25,-23.73 799.63,-25.81 799.63,-25.81 799.63,-25.81 798.25,-23.73 797.75,-27.05 796.87,-21.64 796.87,-21.64"/>
</g>
<!-- v8 -->
<g id="v8_ID(8388&#45;William Gates Building)" class="node">
<title>v8</title>
<ellipse fill="none" stroke="black" cx="346.5" cy="-11" rx="119" ry="11"/>
<text text-anchor="middle" x="346.5" y="-8.8" font-family="sans-serif" font-size="9.00">ID(8388&#45;William Gates Building)</text>
</g>
<!-- v6&#45;&gt;v8 -->
<g id="edge10" class="edge">
<title>v6&#45;&gt;v8</title>
<path fill="none" stroke="black" d="M474.15,-59.98C448.82,-50.46 406.39,-34.51 377.45,-23.63"/>
<polygon fill="black" stroke="black" points="372.57,-21.8 378.04,-21.45 374.91,-22.68 377.25,-23.56 377.25,-23.56 377.25,-23.56 374.91,-22.68 376.46,-25.66 372.57,-21.8 372.57,-21.8"/>
</g>
<!-- s3 -->
<g id="node16" class="node">
<title>s3</title>
<polygon fill="gray" stroke="black" stroke-dasharray="5,2" points="507,-20 484,-20 484,-2 507,-2 507,-20"/>
<text text-anchor="middle" x="495.5" y="-8.8" font-family="serif" font-size="9.00">3</text>
</g>
<!-- v6&#45;&gt;s3 -->
<g id="edge14" class="edge">
<title>v6&#45;&gt;s3</title>
<path fill="none" stroke="black" d="M495.5,-57.99C495.5,-48.86 495.5,-35.3 495.5,-25.27"/>
<polygon fill="black" stroke="black" points="495.5,-20.11 497.75,-25.11 495.5,-22.61 495.5,-25.11 495.5,-25.11 495.5,-25.11 495.5,-22.61 493.25,-25.11 495.5,-20.11 495.5,-20.11"/>
</g>
</g>
</svg>
