<?xml version="1.0" encoding="UTF-8" standalone="no"?>
<?xml-stylesheet href="style.css" type="text/css"?>
<!DOCTYPE svg PUBLIC "-//W3C//DTD SVG 1.1//EN"
 "http://www.w3.org/Graphics/SVG/1.1/DTD/svg11.dtd">
<!-- Generated by graphviz version 2.43.0 (0)
 -->
<!-- Title: b Pages: 1 -->
<svg width="1096pt" height="316pt"
 viewBox="0.00 0.00 1096.00 316.00" xmlns="http://www.w3.org/2000/svg" xmlns:xlink="http://www.w3.org/1999/xlink">
<g id="graph0" class="graph" transform="scale(1 1) rotate(0) translate(4 312)">
<title>b</title>
<polygon fill="white" stroke="transparent" points="-4,4 -4,-312 1092,-312 1092,4 -4,4"/>
<!-- r0 -->
<g id="node1" class="node">
<title>r0</title>
<polygon fill="none" stroke="black" stroke-dasharray="5,2" points="542,-308 519,-308 519,-290 542,-290 542,-308"/>
<text text-anchor="middle" x="530.5" y="-296.8" font-family="serif" font-size="9.00">0</text>
</g>
<!-- v0 -->
<g id="v0_Boundary" class="node">
<title>v0</title>
<ellipse fill="none" stroke="black" cx="530.5" cy="-243" rx="36" ry="11"/>
<text text-anchor="middle" x="530.5" y="-240.8" font-family="sans-serif" font-size="9.00">Boundary</text>
</g>
<!-- r0&#45;&gt;v0 -->
<g id="edge1" class="edge">
<title>r0&#45;&gt;v0</title>
<path fill="none" stroke="black" d="M530.5,-289.56C530.5,-281.45 530.5,-269.01 530.5,-259.18"/>
<polygon fill="black" stroke="black" points="530.5,-254.03 532.75,-259.03 530.5,-256.53 530.5,-259.03 530.5,-259.03 530.5,-259.03 530.5,-256.53 528.25,-259.03 530.5,-254.03 530.5,-254.03"/>
</g>
<!-- e0 -->
<g id="node2" class="node">
<title>e0</title>
</g>
<!-- v6 -->
<g id="v6_Agent" class="node">
<title>v6</title>
<ellipse fill="none" stroke="black" cx="444.5" cy="-69" rx="25" ry="11"/>
<text text-anchor="middle" x="444.5" y="-66.8" font-family="sans-serif" font-size="9.00">Agent</text>
</g>
<!-- e0&#45;&gt;v6 -->
<g id="edge15" class="edge">
<title>e0&#45;&gt;v6</title>
<path fill="none" stroke="green" d="M444.5,-122.17C444.5,-113.59 444.5,-92.6 444.5,-80.01"/>
<polygon fill="green" stroke="green" points="448,-125.3 441,-125.3 441,-123.9 448,-123.9 448,-125.3"/>
<polyline fill="none" stroke="green" points="444.5,-126 444.5,-122.5 "/>
</g>
<!-- v1 -->
<g id="v1_ID(6&#45;180837&#45;Cambridgeshire)" class="node">
<title>v1</title>
<ellipse fill="none" stroke="black" cx="104.5" cy="-11" rx="104.5" ry="11"/>
<text text-anchor="middle" x="104.5" y="-8.8" font-family="sans-serif" font-size="9.00">ID(6&#45;180837&#45;Cambridgeshire)</text>
</g>
<!-- v0&#45;&gt;v1 -->
<g id="edge2" class="edge">
<title>v0&#45;&gt;v1</title>
<path fill="none" stroke="black" d="M514.06,-233.12C448.38,-197.66 204.61,-66.05 127.82,-24.59"/>
<polygon fill="black" stroke="black" points="123.01,-21.99 128.48,-22.39 125.21,-23.18 127.41,-24.37 127.41,-24.37 127.41,-24.37 125.21,-23.18 126.34,-26.35 123.01,-21.99 123.01,-21.99"/>
</g>
<!-- v2 -->
<g id="v2_Boundary" class="node">
<title>v2</title>
<ellipse fill="none" stroke="black" cx="530.5" cy="-185" rx="36" ry="11"/>
<text text-anchor="middle" x="530.5" y="-182.8" font-family="sans-serif" font-size="9.00">Boundary</text>
</g>
<!-- v0&#45;&gt;v2 -->
<g id="edge3" class="edge">
<title>v0&#45;&gt;v2</title>
<path fill="none" stroke="black" d="M530.5,-231.99C530.5,-223.49 530.5,-211.17 530.5,-201.42"/>
<polygon fill="black" stroke="black" points="530.5,-196.3 532.75,-201.3 530.5,-198.8 530.5,-201.3 530.5,-201.3 530.5,-201.3 530.5,-198.8 528.25,-201.3 530.5,-196.3 530.5,-196.3"/>
</g>
<!-- s0 -->
<g id="node13" class="node">
<title>s0</title>
<polygon fill="gray" stroke="black" stroke-dasharray="5,2" points="1088,-20 1065,-20 1065,-2 1088,-2 1088,-20"/>
<text text-anchor="middle" x="1076.5" y="-8.8" font-family="serif" font-size="9.00">0</text>
</g>
<!-- v0&#45;&gt;s0 -->
<g id="edge11" class="edge">
<title>v0&#45;&gt;s0</title>
<path fill="none" stroke="black" d="M551.27,-233.9C622.41,-206.03 862.6,-110.9 1056.5,-22 1057.67,-21.46 1058.88,-20.9 1060.09,-20.32"/>
<polygon fill="black" stroke="black" points="1064.72,-18.06 1061.21,-22.27 1062.47,-19.15 1060.23,-20.25 1060.23,-20.25 1060.23,-20.25 1062.47,-19.15 1059.24,-18.23 1064.72,-18.06 1064.72,-18.06"/>
</g>
<!-- v3 -->
<g id="v3_ID(8&#45;295355&#45;Cambridge)" class="node">
<title>v3</title>
<ellipse fill="none" stroke="black" cx="313.5" cy="-11" rx="86.5" ry="11"/>
<text text-anchor="middle" x="313.5" y="-8.8" font-family="sans-serif" font-size="9.00">ID(8&#45;295355&#45;Cambridge)</text>
</g>
<!-- v2&#45;&gt;v3 -->
<g id="edge4" class="edge">
<title>v2&#45;&gt;v3</title>
<path fill="none" stroke="black" d="M508.69,-176.16C488.4,-168.28 457.86,-154.9 434.5,-138 387.81,-104.23 343.77,-51.18 324.17,-26.07"/>
<polygon fill="black" stroke="black" points="321.02,-22 325.86,-24.57 322.55,-23.98 324.08,-25.95 324.08,-25.95 324.08,-25.95 322.55,-23.98 322.3,-27.33 321.02,-22 321.02,-22"/>
</g>
<!-- v4 -->
<g id="v4_Street" class="node">
<title>v4</title>
<ellipse fill="none" stroke="black" cx="530.5" cy="-127" rx="29" ry="11"/>
<text text-anchor="middle" x="530.5" y="-124.8" font-family="sans-serif" font-size="9.00">Street</text>
</g>
<!-- v2&#45;&gt;v4 -->
<g id="edge5" class="edge">
<title>v2&#45;&gt;v4</title>
<path fill="none" stroke="black" d="M530.5,-173.99C530.5,-165.49 530.5,-153.17 530.5,-143.42"/>
<polygon fill="black" stroke="black" points="530.5,-138.3 532.75,-143.3 530.5,-140.8 530.5,-143.3 530.5,-143.3 530.5,-143.3 530.5,-140.8 528.25,-143.3 530.5,-138.3 530.5,-138.3"/>
</g>
<!-- s1 -->
<g id="node14" class="node">
<title>s1</title>
<polygon fill="gray" stroke="black" stroke-dasharray="5,2" points="1047,-20 1024,-20 1024,-2 1047,-2 1047,-20"/>
<text text-anchor="middle" x="1035.5" y="-8.8" font-family="serif" font-size="9.00">1</text>
</g>
<!-- v2&#45;&gt;s1 -->
<g id="edge12" class="edge">
<title>v2&#45;&gt;s1</title>
<path fill="none" stroke="black" d="M555.05,-176.94C626.8,-156.05 841.95,-91.66 1014.5,-22 1015.9,-21.43 1017.35,-20.82 1018.79,-20.18"/>
<polygon fill="black" stroke="black" points="1023.62,-17.97 1020.01,-22.1 1021.35,-19.01 1019.07,-20.05 1019.07,-20.05 1019.07,-20.05 1021.35,-19.01 1018.14,-18 1023.62,-17.97 1023.62,-17.97"/>
</g>
<!-- v5 -->
<g id="v5_Building" class="node">
<title>v5</title>
<ellipse fill="none" stroke="black" cx="562.5" cy="-69" rx="36" ry="11"/>
<text text-anchor="middle" x="562.5" y="-66.8" font-family="sans-serif" font-size="9.00">Building</text>
</g>
<!-- v4&#45;&gt;v5 -->
<g id="edge6" class="edge">
<title>v4&#45;&gt;v5</title>
<path fill="none" stroke="black" d="M536.22,-115.99C541.23,-107.23 548.56,-94.4 554.21,-84.51"/>
<polygon fill="black" stroke="black" points="556.83,-79.93 556.3,-85.38 555.59,-82.1 554.35,-84.27 554.35,-84.27 554.35,-84.27 555.59,-82.1 552.39,-83.15 556.83,-79.93 556.83,-79.93"/>
</g>
<!-- v4&#45;&gt;v6 -->
<g id="edge7" class="edge">
<title>v4&#45;&gt;v6</title>
<path fill="none" stroke="black" d="M517.06,-117.25C502.21,-107.58 478.23,-91.96 461.94,-81.36"/>
<polygon fill="black" stroke="black" points="457.56,-78.51 462.98,-79.35 459.66,-79.87 461.75,-81.23 461.75,-81.23 461.75,-81.23 459.66,-79.87 460.52,-83.12 457.56,-78.51 457.56,-78.51"/>
</g>
<!-- v7 -->
<g id="v7_ID(J J Thompson Avenue)" class="node">
<title>v7</title>
<ellipse fill="none" stroke="black" cx="915.5" cy="-11" rx="90" ry="11"/>
<text text-anchor="middle" x="915.5" y="-8.8" font-family="sans-serif" font-size="9.00">ID(J J Thompson Avenue)</text>
</g>
<!-- v4&#45;&gt;v7 -->
<g id="edge8" class="edge">
<title>v4&#45;&gt;v7</title>
<path fill="none" stroke="black" d="M552.02,-119.63C615.09,-100.95 799.96,-46.21 878.99,-22.81"/>
<polygon fill="black" stroke="black" points="884.04,-21.31 879.89,-24.89 881.64,-22.02 879.25,-22.73 879.25,-22.73 879.25,-22.73 881.64,-22.02 878.61,-20.58 884.04,-21.31 884.04,-21.31"/>
</g>
<!-- s2 -->
<g id="node15" class="node">
<title>s2</title>
<polygon fill="gray" stroke="black" stroke-dasharray="5,2" points="510,-20 487,-20 487,-2 510,-2 510,-20"/>
<text text-anchor="middle" x="498.5" y="-8.8" font-family="serif" font-size="9.00">2</text>
</g>
<!-- v4&#45;&gt;s2 -->
<g id="edge13" class="edge">
<title>v4&#45;&gt;s2</title>
<path fill="none" stroke="black" d="M527.6,-115.77C524.96,-106.45 520.96,-92.3 517.5,-80 512.17,-61.04 506.05,-39.09 502.23,-25.38"/>
<polygon fill="black" stroke="black" points="500.83,-20.38 504.34,-24.59 501.5,-22.79 502.17,-25.19 502.17,-25.19 502.17,-25.19 501.5,-22.79 500.01,-25.8 500.83,-20.38 500.83,-20.38"/>
</g>
<!-- v8 -->
<g id="v8_ID(8388&#45;William Gates Building)" class="node">
<title>v8</title>
<ellipse fill="none" stroke="black" cx="688.5" cy="-11" rx="119" ry="11"/>
<text text-anchor="middle" x="688.5" y="-8.8" font-family="sans-serif" font-size="9.00">ID(8388&#45;William Gates Building)</text>
</g>
<!-- v5&#45;&gt;v8 -->
<g id="edge9" class="edge">
<title>v5&#45;&gt;v8</title>
<path fill="none" stroke="black" d="M581.36,-59.62C602.6,-50.18 637.29,-34.76 661.42,-24.03"/>
<polygon fill="black" stroke="black" points="666.1,-21.96 662.44,-26.04 663.82,-22.97 661.53,-23.99 661.53,-23.99 661.53,-23.99 663.82,-22.97 660.62,-21.93 666.1,-21.96 666.1,-21.96"/>
</g>
<!-- s3 -->
<g id="node16" class="node">
<title>s3</title>
<polygon fill="gray" stroke="black" stroke-dasharray="5,2" points="551,-20 528,-20 528,-2 551,-2 551,-20"/>
<text text-anchor="middle" x="539.5" y="-8.8" font-family="serif" font-size="9.00">3</text>
</g>
<!-- v5&#45;&gt;s3 -->
<g id="edge14" class="edge">
<title>v5&#45;&gt;s3</title>
<path fill="none" stroke="black" d="M558.39,-57.99C554.6,-48.77 548.97,-35.05 544.84,-24.99"/>
<polygon fill="black" stroke="black" points="542.83,-20.11 546.81,-23.88 543.78,-22.42 544.73,-24.73 544.73,-24.73 544.73,-24.73 543.78,-22.42 542.65,-25.59 542.83,-20.11 542.83,-20.11"/>
</g>
<!-- v9 -->
<g id="v9_ID(A)" class="node">
<title>v9</title>
<ellipse fill="none" stroke="black" cx="443.5" cy="-11" rx="25" ry="11"/>
<text text-anchor="middle" x="443.5" y="-8.8" font-family="sans-serif" font-size="9.00">ID(A)</text>
</g>
<!-- v6&#45;&gt;v9 -->
<g id="edge10" class="edge">
<title>v6&#45;&gt;v9</title>
<path fill="none" stroke="black" d="M444.32,-57.99C444.17,-49.49 443.95,-37.17 443.78,-27.42"/>
<polygon fill="black" stroke="black" points="443.68,-22.3 446.02,-27.26 443.73,-24.8 443.77,-27.3 443.77,-27.3 443.77,-27.3 443.73,-24.8 441.52,-27.34 443.68,-22.3 443.68,-22.3"/>
</g>
</g>
</svg>
