<?xml version="1.0" encoding="UTF-8" standalone="no"?>
<?xml-stylesheet href="style.css" type="text/css"?>
<!DOCTYPE svg PUBLIC "-//W3C//DTD SVG 1.1//EN"
 "http://www.w3.org/Graphics/SVG/1.1/DTD/svg11.dtd">
<!-- Generated by graphviz version 2.43.0 (0)
 -->
<!-- Title: b Pages: 1 -->
<svg width="1123pt" height="316pt"
 viewBox="0.00 0.00 1122.50 316.00" xmlns="http://www.w3.org/2000/svg" xmlns:xlink="http://www.w3.org/1999/xlink">
<g id="graph0" class="graph" transform="scale(1 1) rotate(0) translate(4 312)">
<title>b</title>
<polygon fill="white" stroke="transparent" points="-4,4 -4,-312 1118.5,-312 1118.5,4 -4,4"/>
<!-- r0 -->
<g id="node1" class="node">
<title>r0</title>
<polygon fill="none" stroke="black" stroke-dasharray="5,2" points="926.5,-308 903.5,-308 903.5,-290 926.5,-290 926.5,-308"/>
<text text-anchor="middle" x="915" y="-296.8" font-family="serif" font-size="9.00">0</text>
</g>
<!-- v0 -->
<g id="v0_Boundary" class="node">
<title>v0</title>
<ellipse fill="none" stroke="black" cx="915" cy="-243" rx="36" ry="11"/>
<text text-anchor="middle" x="915" y="-240.8" font-family="sans-serif" font-size="9.00">Boundary</text>
</g>
<!-- r0&#45;&gt;v0 -->
<g id="edge1" class="edge">
<title>r0&#45;&gt;v0</title>
<path fill="none" stroke="black" d="M915,-289.56C915,-281.45 915,-269.01 915,-259.18"/>
<polygon fill="black" stroke="black" points="915,-254.03 917.25,-259.03 915,-256.53 915,-259.03 915,-259.03 915,-259.03 915,-256.53 912.75,-259.03 915,-254.03 915,-254.03"/>
</g>
<!-- v1 -->
<g id="v1_ID(8&#45;295349&#45;Fenland)" class="node">
<title>v1</title>
<ellipse fill="none" stroke="black" cx="79" cy="-11" rx="79" ry="11"/>
<text text-anchor="middle" x="79" y="-8.8" font-family="sans-serif" font-size="9.00">ID(8&#45;295349&#45;Fenland)</text>
</g>
<!-- v0&#45;&gt;v1 -->
<g id="edge2" class="edge">
<title>v0&#45;&gt;v1</title>
<path fill="none" stroke="black" d="M889.52,-234.99C769.58,-201.99 261.01,-62.08 117.09,-22.48"/>
<polygon fill="black" stroke="black" points="112.12,-21.11 117.54,-20.27 114.54,-21.78 116.95,-22.44 116.95,-22.44 116.95,-22.44 114.54,-21.78 116.35,-24.61 112.12,-21.11 112.12,-21.11"/>
</g>
<!-- v2 -->
<g id="v2_Boundary" class="node">
<title>v2</title>
<ellipse fill="none" stroke="black" cx="915" cy="-185" rx="36" ry="11"/>
<text text-anchor="middle" x="915" y="-182.8" font-family="sans-serif" font-size="9.00">Boundary</text>
</g>
<!-- v0&#45;&gt;v2 -->
<g id="edge3" class="edge">
<title>v0&#45;&gt;v2</title>
<path fill="none" stroke="black" d="M915,-231.99C915,-223.49 915,-211.17 915,-201.42"/>
<polygon fill="black" stroke="black" points="915,-196.3 917.25,-201.3 915,-198.8 915,-201.3 915,-201.3 915,-201.3 915,-198.8 912.75,-201.3 915,-196.3 915,-196.3"/>
</g>
<!-- s0 -->
<g id="node12" class="node">
<title>s0</title>
<polygon fill="gray" stroke="black" stroke-dasharray="5,2" points="1114.5,-20 1091.5,-20 1091.5,-2 1114.5,-2 1114.5,-20"/>
<text text-anchor="middle" x="1103" y="-8.8" font-family="serif" font-size="9.00">0</text>
</g>
<!-- v0&#45;&gt;s0 -->
<g id="edge11" class="edge">
<title>v0&#45;&gt;s0</title>
<path fill="none" stroke="black" d="M925.35,-232.08C934.7,-222.98 948.69,-208.96 960,-196 1014.01,-134.12 1072.29,-54.67 1094.1,-24.43"/>
<polygon fill="black" stroke="black" points="1097.05,-20.33 1095.95,-25.71 1095.59,-22.36 1094.13,-24.39 1094.13,-24.39 1094.13,-24.39 1095.59,-22.36 1092.3,-23.08 1097.05,-20.33 1097.05,-20.33"/>
</g>
<!-- v3 -->
<g id="v3_Street" class="node">
<title>v3</title>
<ellipse fill="none" stroke="black" cx="665" cy="-127" rx="29" ry="11"/>
<text text-anchor="middle" x="665" y="-124.8" font-family="sans-serif" font-size="9.00">Street</text>
</g>
<!-- v2&#45;&gt;v3 -->
<g id="edge4" class="edge">
<title>v2&#45;&gt;v3</title>
<path fill="none" stroke="black" d="M887.29,-177.79C839.58,-167.1 742.36,-145.33 693.86,-134.47"/>
<polygon fill="black" stroke="black" points="688.76,-133.32 694.13,-132.22 691.2,-133.87 693.64,-134.42 693.64,-134.42 693.64,-134.42 691.2,-133.87 693.15,-136.61 688.76,-133.32 688.76,-133.32"/>
</g>
<!-- v4 -->
<g id="v4_Agent" class="node">
<title>v4</title>
<ellipse fill="none" stroke="black" cx="794" cy="-69" rx="25" ry="11"/>
<text text-anchor="middle" x="794" y="-66.8" font-family="sans-serif" font-size="9.00">Agent</text>
</g>
<!-- v2&#45;&gt;v4 -->
<g id="edge5" class="edge">
<title>v2&#45;&gt;v4</title>
<path fill="none" stroke="black" d="M904.68,-174.28C882.88,-153.73 832.09,-105.89 807.64,-82.85"/>
<polygon fill="black" stroke="black" points="803.95,-79.37 809.13,-81.17 805.77,-81.09 807.59,-82.8 807.59,-82.8 807.59,-82.8 805.77,-81.09 806.05,-84.44 803.95,-79.37 803.95,-79.37"/>
</g>
<!-- v5 -->
<g id="v5_ID(10&#45;1609095&#45;Whittlesey)" class="node">
<title>v5</title>
<ellipse fill="none" stroke="black" cx="936" cy="-11" rx="97" ry="11"/>
<text text-anchor="middle" x="936" y="-8.8" font-family="sans-serif" font-size="9.00">ID(10&#45;1609095&#45;Whittlesey)</text>
</g>
<!-- v2&#45;&gt;v5 -->
<g id="edge6" class="edge">
<title>v2&#45;&gt;v5</title>
<path fill="none" stroke="black" d="M916.25,-173.76C919.79,-144.79 929.88,-62.14 934.1,-27.53"/>
<polygon fill="black" stroke="black" points="934.73,-22.41 936.36,-27.64 934.43,-24.89 934.12,-27.37 934.12,-27.37 934.12,-27.37 934.43,-24.89 931.89,-27.1 934.73,-22.41 934.73,-22.41"/>
</g>
<!-- s1 -->
<g id="node13" class="node">
<title>s1</title>
<polygon fill="gray" stroke="black" stroke-dasharray="5,2" points="1073.5,-20 1050.5,-20 1050.5,-2 1073.5,-2 1073.5,-20"/>
<text text-anchor="middle" x="1062" y="-8.8" font-family="serif" font-size="9.00">1</text>
</g>
<!-- v2&#45;&gt;s1 -->
<g id="edge12" class="edge">
<title>v2&#45;&gt;s1</title>
<path fill="none" stroke="black" d="M923.32,-174.26C948.55,-144.74 1024.11,-56.33 1051.74,-24.01"/>
<polygon fill="black" stroke="black" points="1055.16,-20 1053.62,-25.27 1053.54,-21.9 1051.91,-23.8 1051.91,-23.8 1051.91,-23.8 1053.54,-21.9 1050.2,-22.34 1055.16,-20 1055.16,-20"/>
</g>
<!-- v6 -->
<g id="v6_ID(Church Street)" class="node">
<title>v6</title>
<ellipse fill="none" stroke="black" cx="245" cy="-11" rx="68.5" ry="11"/>
<text text-anchor="middle" x="245" y="-8.8" font-family="sans-serif" font-size="9.00">ID(Church Street)</text>
</g>
<!-- v3&#45;&gt;v6 -->
<g id="edge7" class="edge">
<title>v3&#45;&gt;v6</title>
<path fill="none" stroke="black" d="M642.72,-119.95C574.38,-101.4 367.24,-45.18 282.13,-22.08"/>
<polygon fill="black" stroke="black" points="277.19,-20.74 282.6,-19.87 279.6,-21.39 282.01,-22.05 282.01,-22.05 282.01,-22.05 279.6,-21.39 281.42,-24.22 277.19,-20.74 277.19,-20.74"/>
</g>
<!-- v7 -->
<g id="v7_Building" class="node">
<title>v7</title>
<ellipse fill="none" stroke="black" cx="633" cy="-69" rx="36" ry="11"/>
<text text-anchor="middle" x="633" y="-66.8" font-family="sans-serif" font-size="9.00">Building</text>
</g>
<!-- v3&#45;&gt;v7 -->
<g id="edge8" class="edge">
<title>v3&#45;&gt;v7</title>
<path fill="none" stroke="black" d="M659.28,-115.99C654.27,-107.23 646.94,-94.4 641.29,-84.51"/>
<polygon fill="black" stroke="black" points="638.67,-79.93 643.11,-83.15 639.91,-82.1 641.15,-84.27 641.15,-84.27 641.15,-84.27 639.91,-82.1 639.2,-85.38 638.67,-79.93 638.67,-79.93"/>
</g>
<!-- s2 -->
<g id="node14" class="node">
<title>s2</title>
<polygon fill="gray" stroke="black" stroke-dasharray="5,2" points="708.5,-20 685.5,-20 685.5,-2 708.5,-2 708.5,-20"/>
<text text-anchor="middle" x="697" y="-8.8" font-family="serif" font-size="9.00">2</text>
</g>
<!-- v3&#45;&gt;s2 -->
<g id="edge13" class="edge">
<title>v3&#45;&gt;s2</title>
<path fill="none" stroke="black" d="M667.9,-115.77C670.54,-106.45 674.54,-92.3 678,-80 683.33,-61.04 689.45,-39.09 693.27,-25.38"/>
<polygon fill="black" stroke="black" points="694.67,-20.38 695.49,-25.8 694,-22.79 693.33,-25.19 693.33,-25.19 693.33,-25.19 694,-22.79 691.16,-24.59 694.67,-20.38 694.67,-20.38"/>
</g>
<!-- v9 -->
<g id="v9_ID(agent 1)" class="node">
<title>v9</title>
<ellipse fill="none" stroke="black" cx="774" cy="-11" rx="47" ry="11"/>
<text text-anchor="middle" x="774" y="-8.8" font-family="sans-serif" font-size="9.00">ID(agent 1)</text>
</g>
<!-- v4&#45;&gt;v9 -->
<g id="edge9" class="edge">
<title>v4&#45;&gt;v9</title>
<path fill="none" stroke="black" d="M790.42,-57.99C787.36,-49.42 782.91,-36.94 779.41,-27.15"/>
<polygon fill="black" stroke="black" points="777.68,-22.3 781.48,-26.26 778.52,-24.66 779.36,-27.01 779.36,-27.01 779.36,-27.01 778.52,-24.66 777.24,-27.77 777.68,-22.3 777.68,-22.3"/>
</g>
<!-- v8 -->
<g id="v8_ID(685011752&#45;Whittlesey Salvation Army)" class="node">
<title>v8</title>
<ellipse fill="none" stroke="black" cx="479" cy="-11" rx="147.5" ry="11"/>
<text text-anchor="middle" x="479" y="-8.8" font-family="sans-serif" font-size="9.00">ID(685011752&#45;Whittlesey Salvation Army)</text>
</g>
<!-- v7&#45;&gt;v8 -->
<g id="edge10" class="edge">
<title>v7&#45;&gt;v8</title>
<path fill="none" stroke="black" d="M611.26,-60.1C585.16,-50.6 541.16,-34.6 511.14,-23.69"/>
<polygon fill="black" stroke="black" points="506.07,-21.84 511.54,-21.44 508.42,-22.7 510.77,-23.55 510.77,-23.55 510.77,-23.55 508.42,-22.7 510,-25.67 506.07,-21.84 506.07,-21.84"/>
</g>
<!-- s3 -->
<g id="node15" class="node">
<title>s3</title>
<polygon fill="gray" stroke="black" stroke-dasharray="5,2" points="667.5,-20 644.5,-20 644.5,-2 667.5,-2 667.5,-20"/>
<text text-anchor="middle" x="656" y="-8.8" font-family="serif" font-size="9.00">3</text>
</g>
<!-- v7&#45;&gt;s3 -->
<g id="edge14" class="edge">
<title>v7&#45;&gt;s3</title>
<path fill="none" stroke="black" d="M637.11,-57.99C640.9,-48.77 646.53,-35.05 650.66,-24.99"/>
<polygon fill="black" stroke="black" points="652.67,-20.11 652.85,-25.59 651.72,-22.42 650.77,-24.73 650.77,-24.73 650.77,-24.73 651.72,-22.42 648.69,-23.88 652.67,-20.11 652.67,-20.11"/>
</g>
</g>
</svg>
