<?xml version="1.0" encoding="UTF-8" standalone="no"?>
<?xml-stylesheet href="style.css" type="text/css"?>
<!DOCTYPE svg PUBLIC "-//W3C//DTD SVG 1.1//EN"
 "http://www.w3.org/Graphics/SVG/1.1/DTD/svg11.dtd">
<!-- Generated by graphviz version 2.43.0 (0)
 -->
<!-- Title: b Pages: 1 -->
<svg width="1124pt" height="316pt"
 viewBox="0.00 0.00 1123.50 316.00" xmlns="http://www.w3.org/2000/svg" xmlns:xlink="http://www.w3.org/1999/xlink">
<g id="graph0" class="graph" transform="scale(1 1) rotate(0) translate(4 312)">
<title>b</title>
<polygon fill="white" stroke="transparent" points="-4,4 -4,-312 1119.5,-312 1119.5,4 -4,4"/>
<!-- r0 -->
<g id="node1" class="node">
<title>r0</title>
<polygon fill="none" stroke="black" stroke-dasharray="5,2" points="917.5,-308 894.5,-308 894.5,-290 917.5,-290 917.5,-308"/>
<text text-anchor="middle" x="906" y="-296.8" font-family="serif" font-size="9.00">0</text>
</g>
<!-- v0 -->
<g id="v0_Boundary" class="node">
<title>v0</title>
<ellipse fill="none" stroke="black" cx="906" cy="-243" rx="36" ry="11"/>
<text text-anchor="middle" x="906" y="-240.8" font-family="sans-serif" font-size="9.00">Boundary</text>
</g>
<!-- r0&#45;&gt;v0 -->
<g id="edge1" class="edge">
<title>r0&#45;&gt;v0</title>
<path fill="none" stroke="black" d="M906,-289.56C906,-281.45 906,-269.01 906,-259.18"/>
<polygon fill="black" stroke="black" points="906,-254.03 908.25,-259.03 906,-256.53 906,-259.03 906,-259.03 906,-259.03 906,-256.53 903.75,-259.03 906,-254.03 906,-254.03"/>
</g>
<!-- v1 -->
<g id="v1_ID(8&#45;295349&#45;Fenland)" class="node">
<title>v1</title>
<ellipse fill="none" stroke="black" cx="79" cy="-11" rx="79" ry="11"/>
<text text-anchor="middle" x="79" y="-8.8" font-family="sans-serif" font-size="9.00">ID(8&#45;295349&#45;Fenland)</text>
</g>
<!-- v0&#45;&gt;v1 -->
<g id="edge2" class="edge">
<title>v0&#45;&gt;v1</title>
<path fill="none" stroke="black" d="M880.8,-234.99C762.15,-201.99 259.05,-62.08 116.68,-22.48"/>
<polygon fill="black" stroke="black" points="111.77,-21.11 117.19,-20.29 114.18,-21.78 116.59,-22.45 116.59,-22.45 116.59,-22.45 114.18,-21.78 115.98,-24.62 111.77,-21.11 111.77,-21.11"/>
</g>
<!-- v2 -->
<g id="v2_Boundary" class="node">
<title>v2</title>
<ellipse fill="none" stroke="black" cx="906" cy="-185" rx="36" ry="11"/>
<text text-anchor="middle" x="906" y="-182.8" font-family="sans-serif" font-size="9.00">Boundary</text>
</g>
<!-- v0&#45;&gt;v2 -->
<g id="edge3" class="edge">
<title>v0&#45;&gt;v2</title>
<path fill="none" stroke="black" d="M906,-231.99C906,-223.49 906,-211.17 906,-201.42"/>
<polygon fill="black" stroke="black" points="906,-196.3 908.25,-201.3 906,-198.8 906,-201.3 906,-201.3 906,-201.3 906,-198.8 903.75,-201.3 906,-196.3 906,-196.3"/>
</g>
<!-- s0 -->
<g id="node12" class="node">
<title>s0</title>
<polygon fill="gray" stroke="black" stroke-dasharray="5,2" points="1115.5,-20 1092.5,-20 1092.5,-2 1115.5,-2 1115.5,-20"/>
<text text-anchor="middle" x="1104" y="-8.8" font-family="serif" font-size="9.00">0</text>
</g>
<!-- v0&#45;&gt;s0 -->
<g id="edge11" class="edge">
<title>v0&#45;&gt;s0</title>
<path fill="none" stroke="black" d="M915.89,-232.35C925.17,-223.19 939.33,-208.94 951,-196 1007.5,-133.38 1070.61,-54.36 1094.31,-24.34"/>
<polygon fill="black" stroke="black" points="1097.52,-20.27 1096.19,-25.59 1095.97,-22.23 1094.42,-24.2 1094.42,-24.2 1094.42,-24.2 1095.97,-22.23 1092.66,-22.8 1097.52,-20.27 1097.52,-20.27"/>
</g>
<!-- v3 -->
<g id="v3_ID(10&#45;1609095&#45;Whittlesey)" class="node">
<title>v3</title>
<ellipse fill="none" stroke="black" cx="273" cy="-11" rx="97" ry="11"/>
<text text-anchor="middle" x="273" y="-8.8" font-family="sans-serif" font-size="9.00">ID(10&#45;1609095&#45;Whittlesey)</text>
</g>
<!-- v2&#45;&gt;v3 -->
<g id="edge4" class="edge">
<title>v2&#45;&gt;v3</title>
<path fill="none" stroke="black" d="M880.4,-177.04C782.51,-150.45 431.45,-55.06 312.63,-22.77"/>
<polygon fill="black" stroke="black" points="307.49,-21.37 312.91,-20.51 309.9,-22.03 312.32,-22.68 312.32,-22.68 312.32,-22.68 309.9,-22.03 311.73,-24.85 307.49,-21.37 307.49,-21.37"/>
</g>
<!-- v4 -->
<g id="v4_Street" class="node">
<title>v4</title>
<ellipse fill="none" stroke="black" cx="906" cy="-127" rx="29" ry="11"/>
<text text-anchor="middle" x="906" y="-124.8" font-family="sans-serif" font-size="9.00">Street</text>
</g>
<!-- v2&#45;&gt;v4 -->
<g id="edge5" class="edge">
<title>v2&#45;&gt;v4</title>
<path fill="none" stroke="black" d="M906,-173.99C906,-165.49 906,-153.17 906,-143.42"/>
<polygon fill="black" stroke="black" points="906,-138.3 908.25,-143.3 906,-140.8 906,-143.3 906,-143.3 906,-143.3 906,-140.8 903.75,-143.3 906,-138.3 906,-138.3"/>
</g>
<!-- s1 -->
<g id="node13" class="node">
<title>s1</title>
<polygon fill="gray" stroke="black" stroke-dasharray="5,2" points="1074.5,-20 1051.5,-20 1051.5,-2 1074.5,-2 1074.5,-20"/>
<text text-anchor="middle" x="1063" y="-8.8" font-family="serif" font-size="9.00">1</text>
</g>
<!-- v2&#45;&gt;s1 -->
<g id="edge12" class="edge">
<title>v2&#45;&gt;s1</title>
<path fill="none" stroke="black" d="M914.91,-174.25C931.74,-155.84 969.35,-114.68 1001,-80 1018.76,-60.54 1039.37,-37.93 1051.79,-24.3"/>
<polygon fill="black" stroke="black" points="1055.37,-20.38 1053.66,-25.59 1053.68,-22.22 1052,-24.07 1052,-24.07 1052,-24.07 1053.68,-22.22 1050.34,-22.56 1055.37,-20.38 1055.37,-20.38"/>
</g>
<!-- v5 -->
<g id="v5_ID(Church Street)" class="node">
<title>v5</title>
<ellipse fill="none" stroke="black" cx="457" cy="-11" rx="68.5" ry="11"/>
<text text-anchor="middle" x="457" y="-8.8" font-family="sans-serif" font-size="9.00">ID(Church Street)</text>
</g>
<!-- v4&#45;&gt;v5 -->
<g id="edge6" class="edge">
<title>v4&#45;&gt;v5</title>
<path fill="none" stroke="black" d="M883.12,-120.19C810.86,-101.84 586.96,-45 496,-21.9"/>
<polygon fill="black" stroke="black" points="490.99,-20.63 496.39,-19.68 493.41,-21.25 495.84,-21.86 495.84,-21.86 495.84,-21.86 493.41,-21.25 495.28,-24.04 490.99,-20.63 490.99,-20.63"/>
</g>
<!-- v6 -->
<g id="v6_Building" class="node">
<title>v6</title>
<ellipse fill="none" stroke="black" cx="866" cy="-69" rx="36" ry="11"/>
<text text-anchor="middle" x="866" y="-66.8" font-family="sans-serif" font-size="9.00">Building</text>
</g>
<!-- v4&#45;&gt;v6 -->
<g id="edge7" class="edge">
<title>v4&#45;&gt;v6</title>
<path fill="none" stroke="black" d="M899.03,-116.25C892.69,-107.36 883.24,-94.14 876.07,-84.1"/>
<polygon fill="black" stroke="black" points="873.16,-80.02 877.89,-82.78 874.61,-82.05 876.06,-84.09 876.06,-84.09 876.06,-84.09 874.61,-82.05 874.23,-85.4 873.16,-80.02 873.16,-80.02"/>
</g>
<!-- v8 -->
<g id="v8_Agent" class="node">
<title>v8</title>
<ellipse fill="none" stroke="black" cx="945" cy="-69" rx="25" ry="11"/>
<text text-anchor="middle" x="945" y="-66.8" font-family="sans-serif" font-size="9.00">Agent</text>
</g>
<!-- v4&#45;&gt;v8 -->
<g id="edge8" class="edge">
<title>v4&#45;&gt;v8</title>
<path fill="none" stroke="black" d="M912.79,-116.25C919,-107.33 928.25,-94.05 935.25,-84"/>
<polygon fill="black" stroke="black" points="938.28,-79.64 937.27,-85.03 936.86,-81.69 935.43,-83.75 935.43,-83.75 935.43,-83.75 936.86,-81.69 933.58,-82.46 938.28,-79.64 938.28,-79.64"/>
</g>
<!-- s2 -->
<g id="node14" class="node">
<title>s2</title>
<polygon fill="gray" stroke="black" stroke-dasharray="5,2" points="1033.5,-20 1010.5,-20 1010.5,-2 1033.5,-2 1033.5,-20"/>
<text text-anchor="middle" x="1022" y="-8.8" font-family="serif" font-size="9.00">2</text>
</g>
<!-- v4&#45;&gt;s2 -->
<g id="edge13" class="edge">
<title>v4&#45;&gt;s2</title>
<path fill="none" stroke="black" d="M923.14,-117.98C938.97,-109.98 962.46,-96.51 979,-80 995.52,-63.51 1008.79,-39.57 1016.02,-24.94"/>
<polygon fill="black" stroke="black" points="1018.24,-20.35 1018.09,-25.84 1017.15,-22.61 1016.06,-24.86 1016.06,-24.86 1016.06,-24.86 1017.15,-22.61 1014.04,-23.88 1018.24,-20.35 1018.24,-20.35"/>
</g>
<!-- v7 -->
<g id="v7_ID(685011752&#45;Whittlesey Salvation Army)" class="node">
<title>v7</title>
<ellipse fill="none" stroke="black" cx="691" cy="-11" rx="147.5" ry="11"/>
<text text-anchor="middle" x="691" y="-8.8" font-family="sans-serif" font-size="9.00">ID(685011752&#45;Whittlesey Salvation Army)</text>
</g>
<!-- v6&#45;&gt;v7 -->
<g id="edge9" class="edge">
<title>v6&#45;&gt;v7</title>
<path fill="none" stroke="black" d="M842.76,-60.56C813.07,-51.06 761.39,-34.53 726.7,-23.42"/>
<polygon fill="black" stroke="black" points="721.7,-21.83 727.15,-21.21 724.09,-22.59 726.47,-23.35 726.47,-23.35 726.47,-23.35 724.09,-22.59 725.78,-25.49 721.7,-21.83 721.7,-21.83"/>
</g>
<!-- s3 -->
<g id="node15" class="node">
<title>s3</title>
<polygon fill="gray" stroke="black" stroke-dasharray="5,2" points="879.5,-20 856.5,-20 856.5,-2 879.5,-2 879.5,-20"/>
<text text-anchor="middle" x="868" y="-8.8" font-family="serif" font-size="9.00">3</text>
</g>
<!-- v6&#45;&gt;s3 -->
<g id="edge14" class="edge">
<title>v6&#45;&gt;s3</title>
<path fill="none" stroke="black" d="M866.36,-57.99C866.68,-48.86 867.17,-35.3 867.53,-25.27"/>
<polygon fill="black" stroke="black" points="867.71,-20.11 869.78,-25.19 867.62,-22.61 867.53,-25.11 867.53,-25.11 867.53,-25.11 867.62,-22.61 865.28,-25.03 867.71,-20.11 867.71,-20.11"/>
</g>
<!-- v9 -->
<g id="v9_ID(agent 1)" class="node">
<title>v9</title>
<ellipse fill="none" stroke="black" cx="945" cy="-11" rx="47" ry="11"/>
<text text-anchor="middle" x="945" y="-8.8" font-family="sans-serif" font-size="9.00">ID(agent 1)</text>
</g>
<!-- v8&#45;&gt;v9 -->
<g id="edge10" class="edge">
<title>v8&#45;&gt;v9</title>
<path fill="none" stroke="black" d="M945,-57.99C945,-49.49 945,-37.17 945,-27.42"/>
<polygon fill="black" stroke="black" points="945,-22.3 947.25,-27.3 945,-24.8 945,-27.3 945,-27.3 945,-27.3 945,-24.8 942.75,-27.3 945,-22.3 945,-22.3"/>
</g>
</g>
</svg>
