<?xml version="1.0" encoding="UTF-8" standalone="no"?>
<?xml-stylesheet href="style.css" type="text/css"?>
<!DOCTYPE svg PUBLIC "-//W3C//DTD SVG 1.1//EN"
 "http://www.w3.org/Graphics/SVG/1.1/DTD/svg11.dtd">
<!-- Generated by graphviz version 2.43.0 (0)
 -->
<!-- Title: b Pages: 1 -->
<svg width="1121pt" height="316pt"
 viewBox="0.00 0.00 1121.00 316.00" xmlns="http://www.w3.org/2000/svg" xmlns:xlink="http://www.w3.org/1999/xlink">
<g id="graph0" class="graph" transform="scale(1 1) rotate(0) translate(4 312)">
<title>b</title>
<polygon fill="white" stroke="transparent" points="-4,4 -4,-312 1117,-312 1117,4 -4,4"/>
<!-- r0 -->
<g id="node1" class="node">
<title>r0</title>
<polygon fill="none" stroke="black" stroke-dasharray="5,2" points="987,-308 964,-308 964,-290 987,-290 987,-308"/>
<text text-anchor="middle" x="975.5" y="-296.8" font-family="serif" font-size="9.00">0</text>
</g>
<!-- v0 -->
<g id="v0_Boundary" class="node">
<title>v0</title>
<ellipse fill="none" stroke="black" cx="975.5" cy="-243" rx="36" ry="11"/>
<text text-anchor="middle" x="975.5" y="-240.8" font-family="sans-serif" font-size="9.00">Boundary</text>
</g>
<!-- r0&#45;&gt;v0 -->
<g id="edge1" class="edge">
<title>r0&#45;&gt;v0</title>
<path fill="none" stroke="black" d="M975.5,-289.56C975.5,-281.45 975.5,-269.01 975.5,-259.18"/>
<polygon fill="black" stroke="black" points="975.5,-254.03 977.75,-259.03 975.5,-256.53 975.5,-259.03 975.5,-259.03 975.5,-259.03 975.5,-256.53 973.25,-259.03 975.5,-254.03 975.5,-254.03"/>
</g>
<!-- v1 -->
<g id="v1_Boundary" class="node">
<title>v1</title>
<ellipse fill="none" stroke="black" cx="709.5" cy="-185" rx="36" ry="11"/>
<text text-anchor="middle" x="709.5" y="-182.8" font-family="sans-serif" font-size="9.00">Boundary</text>
</g>
<!-- v0&#45;&gt;v1 -->
<g id="edge2" class="edge">
<title>v0&#45;&gt;v1</title>
<path fill="none" stroke="black" d="M947.03,-236.01C897.44,-225.57 795.44,-204.09 742.71,-192.99"/>
<polygon fill="black" stroke="black" points="737.76,-191.95 743.12,-190.78 740.21,-192.46 742.65,-192.98 742.65,-192.98 742.65,-192.98 740.21,-192.46 742.19,-195.18 737.76,-191.95 737.76,-191.95"/>
</g>
<!-- v2 -->
<g id="v2_Agent" class="node">
<title>v2</title>
<ellipse fill="none" stroke="black" cx="867.5" cy="-69" rx="25" ry="11"/>
<text text-anchor="middle" x="867.5" y="-66.8" font-family="sans-serif" font-size="9.00">Agent</text>
</g>
<!-- v0&#45;&gt;v2 -->
<g id="edge3" class="edge">
<title>v0&#45;&gt;v2</title>
<path fill="none" stroke="black" d="M969.23,-232.01C950.96,-202.92 897.75,-118.18 876.46,-84.27"/>
<polygon fill="black" stroke="black" points="873.79,-80.02 878.36,-83.06 875.12,-82.14 876.45,-84.25 876.45,-84.25 876.45,-84.25 875.12,-82.14 874.54,-85.45 873.79,-80.02 873.79,-80.02"/>
</g>
<!-- v3 -->
<g id="v3_ID(8&#45;295349&#45;Fenland)" class="node">
<title>v3</title>
<ellipse fill="none" stroke="black" cx="993.5" cy="-11" rx="79" ry="11"/>
<text text-anchor="middle" x="993.5" y="-8.8" font-family="sans-serif" font-size="9.00">ID(8&#45;295349&#45;Fenland)</text>
</g>
<!-- v0&#45;&gt;v3 -->
<g id="edge4" class="edge">
<title>v0&#45;&gt;v3</title>
<path fill="none" stroke="black" d="M976.3,-231.82C979.15,-195.3 988.9,-70.76 992.31,-27.19"/>
<polygon fill="black" stroke="black" points="992.71,-22.06 994.57,-27.22 992.52,-24.55 992.32,-27.05 992.32,-27.05 992.32,-27.05 992.52,-24.55 990.08,-26.87 992.71,-22.06 992.71,-22.06"/>
</g>
<!-- s0 -->
<g id="node12" class="node">
<title>s0</title>
<polygon fill="gray" stroke="black" stroke-dasharray="5,2" points="1113,-20 1090,-20 1090,-2 1113,-2 1113,-20"/>
<text text-anchor="middle" x="1101.5" y="-8.8" font-family="serif" font-size="9.00">0</text>
</g>
<!-- v0&#45;&gt;s0 -->
<g id="edge11" class="edge">
<title>v0&#45;&gt;s0</title>
<path fill="none" stroke="black" d="M980.91,-232.12C1001.1,-195.27 1071.98,-65.88 1094.55,-24.69"/>
<polygon fill="black" stroke="black" points="1097.05,-20.12 1096.62,-25.58 1095.85,-22.31 1094.65,-24.5 1094.65,-24.5 1094.65,-24.5 1095.85,-22.31 1092.68,-23.42 1097.05,-20.12 1097.05,-20.12"/>
</g>
<!-- v4 -->
<g id="v4_Street" class="node">
<title>v4</title>
<ellipse fill="none" stroke="black" cx="488.5" cy="-127" rx="29" ry="11"/>
<text text-anchor="middle" x="488.5" y="-124.8" font-family="sans-serif" font-size="9.00">Street</text>
</g>
<!-- v1&#45;&gt;v4 -->
<g id="edge5" class="edge">
<title>v1&#45;&gt;v4</title>
<path fill="none" stroke="black" d="M683.28,-177.36C641.31,-166.72 559.4,-145.97 516.39,-135.07"/>
<polygon fill="black" stroke="black" points="511.35,-133.79 516.75,-132.84 513.77,-134.4 516.19,-135.02 516.19,-135.02 516.19,-135.02 513.77,-134.4 515.64,-137.2 511.35,-133.79 511.35,-133.79"/>
</g>
<!-- v5 -->
<g id="v5_ID(10&#45;1609095&#45;Whittlesey)" class="node">
<title>v5</title>
<ellipse fill="none" stroke="black" cx="646.5" cy="-11" rx="97" ry="11"/>
<text text-anchor="middle" x="646.5" y="-8.8" font-family="sans-serif" font-size="9.00">ID(10&#45;1609095&#45;Whittlesey)</text>
</g>
<!-- v1&#45;&gt;v5 -->
<g id="edge6" class="edge">
<title>v1&#45;&gt;v5</title>
<path fill="none" stroke="black" d="M705.84,-174.01C695.27,-145.15 664.65,-61.56 652.03,-27.11"/>
<polygon fill="black" stroke="black" points="650.17,-22.02 654,-25.94 651.03,-24.37 651.89,-26.71 651.89,-26.71 651.89,-26.71 651.03,-24.37 649.78,-27.49 650.17,-22.02 650.17,-22.02"/>
</g>
<!-- s1 -->
<g id="node13" class="node">
<title>s1</title>
<polygon fill="gray" stroke="black" stroke-dasharray="5,2" points="784,-20 761,-20 761,-2 784,-2 784,-20"/>
<text text-anchor="middle" x="772.5" y="-8.8" font-family="serif" font-size="9.00">1</text>
</g>
<!-- v1&#45;&gt;s1 -->
<g id="edge12" class="edge">
<title>v1&#45;&gt;s1</title>
<path fill="none" stroke="black" d="M713.16,-174.01C723.93,-144.61 755.51,-58.38 767.66,-25.21"/>
<polygon fill="black" stroke="black" points="769.44,-20.36 769.83,-25.83 768.58,-22.71 767.72,-25.06 767.72,-25.06 767.72,-25.06 768.58,-22.71 765.6,-24.28 769.44,-20.36 769.44,-20.36"/>
</g>
<!-- v9 -->
<g id="v9_ID(agent 1)" class="node">
<title>v9</title>
<ellipse fill="none" stroke="black" cx="849.5" cy="-11" rx="47" ry="11"/>
<text text-anchor="middle" x="849.5" y="-8.8" font-family="sans-serif" font-size="9.00">ID(agent 1)</text>
</g>
<!-- v2&#45;&gt;v9 -->
<g id="edge7" class="edge">
<title>v2&#45;&gt;v9</title>
<path fill="none" stroke="black" d="M864.28,-57.99C861.53,-49.42 857.52,-36.94 854.37,-27.15"/>
<polygon fill="black" stroke="black" points="852.81,-22.3 856.48,-26.38 853.58,-24.68 854.34,-27.06 854.34,-27.06 854.34,-27.06 853.58,-24.68 852.2,-27.75 852.81,-22.3 852.81,-22.3"/>
</g>
<!-- v6 -->
<g id="v6_ID(Church Street)" class="node">
<title>v6</title>
<ellipse fill="none" stroke="black" cx="68.5" cy="-11" rx="68.5" ry="11"/>
<text text-anchor="middle" x="68.5" y="-8.8" font-family="sans-serif" font-size="9.00">ID(Church Street)</text>
</g>
<!-- v4&#45;&gt;v6 -->
<g id="edge8" class="edge">
<title>v4&#45;&gt;v6</title>
<path fill="none" stroke="black" d="M466.22,-119.95C397.88,-101.4 190.74,-45.18 105.63,-22.08"/>
<polygon fill="black" stroke="black" points="100.69,-20.74 106.1,-19.87 103.1,-21.39 105.51,-22.05 105.51,-22.05 105.51,-22.05 103.1,-21.39 104.92,-24.22 100.69,-20.74 100.69,-20.74"/>
</g>
<!-- v7 -->
<g id="v7_Building" class="node">
<title>v7</title>
<ellipse fill="none" stroke="black" cx="456.5" cy="-69" rx="36" ry="11"/>
<text text-anchor="middle" x="456.5" y="-66.8" font-family="sans-serif" font-size="9.00">Building</text>
</g>
<!-- v4&#45;&gt;v7 -->
<g id="edge9" class="edge">
<title>v4&#45;&gt;v7</title>
<path fill="none" stroke="black" d="M482.78,-115.99C477.77,-107.23 470.44,-94.4 464.79,-84.51"/>
<polygon fill="black" stroke="black" points="462.17,-79.93 466.61,-83.15 463.41,-82.1 464.65,-84.27 464.65,-84.27 464.65,-84.27 463.41,-82.1 462.7,-85.38 462.17,-79.93 462.17,-79.93"/>
</g>
<!-- s2 -->
<g id="node14" class="node">
<title>s2</title>
<polygon fill="gray" stroke="black" stroke-dasharray="5,2" points="532,-20 509,-20 509,-2 532,-2 532,-20"/>
<text text-anchor="middle" x="520.5" y="-8.8" font-family="serif" font-size="9.00">2</text>
</g>
<!-- v4&#45;&gt;s2 -->
<g id="edge13" class="edge">
<title>v4&#45;&gt;s2</title>
<path fill="none" stroke="black" d="M491.4,-115.77C494.04,-106.45 498.04,-92.3 501.5,-80 506.83,-61.04 512.95,-39.09 516.77,-25.38"/>
<polygon fill="black" stroke="black" points="518.17,-20.38 518.99,-25.8 517.5,-22.79 516.83,-25.19 516.83,-25.19 516.83,-25.19 517.5,-22.79 514.66,-24.59 518.17,-20.38 518.17,-20.38"/>
</g>
<!-- v8 -->
<g id="v8_ID(685011752&#45;Whittlesey Salvation Army)" class="node">
<title>v8</title>
<ellipse fill="none" stroke="black" cx="302.5" cy="-11" rx="147.5" ry="11"/>
<text text-anchor="middle" x="302.5" y="-8.8" font-family="sans-serif" font-size="9.00">ID(685011752&#45;Whittlesey Salvation Army)</text>
</g>
<!-- v7&#45;&gt;v8 -->
<g id="edge10" class="edge">
<title>v7&#45;&gt;v8</title>
<path fill="none" stroke="black" d="M434.76,-60.1C408.66,-50.6 364.66,-34.6 334.64,-23.69"/>
<polygon fill="black" stroke="black" points="329.57,-21.84 335.04,-21.44 331.92,-22.7 334.27,-23.55 334.27,-23.55 334.27,-23.55 331.92,-22.7 333.5,-25.67 329.57,-21.84 329.57,-21.84"/>
</g>
<!-- s3 -->
<g id="node15" class="node">
<title>s3</title>
<polygon fill="gray" stroke="black" stroke-dasharray="5,2" points="491,-20 468,-20 468,-2 491,-2 491,-20"/>
<text text-anchor="middle" x="479.5" y="-8.8" font-family="serif" font-size="9.00">3</text>
</g>
<!-- v7&#45;&gt;s3 -->
<g id="edge14" class="edge">
<title>v7&#45;&gt;s3</title>
<path fill="none" stroke="black" d="M460.61,-57.99C464.4,-48.77 470.03,-35.05 474.16,-24.99"/>
<polygon fill="black" stroke="black" points="476.17,-20.11 476.35,-25.59 475.22,-22.42 474.27,-24.73 474.27,-24.73 474.27,-24.73 475.22,-22.42 472.19,-23.88 476.17,-20.11 476.17,-20.11"/>
</g>
</g>
</svg>
