<?xml version="1.0" encoding="UTF-8" standalone="no"?>
<?xml-stylesheet href="style.css" type="text/css"?>
<!DOCTYPE svg PUBLIC "-//W3C//DTD SVG 1.1//EN"
 "http://www.w3.org/Graphics/SVG/1.1/DTD/svg11.dtd">
<!-- Generated by graphviz version 2.43.0 (0)
 -->
<!-- Title: test Pages: 1 -->
<svg width="223pt" height="84pt"
 viewBox="0.00 0.00 223.00 84.00" xmlns="http://www.w3.org/2000/svg" xmlns:xlink="http://www.w3.org/1999/xlink">
<g id="graph0" class="graph" transform="scale(1 1) rotate(0) translate(4 80)">
<title>test</title>
<polygon fill="white" stroke="transparent" points="-4,4 -4,-80 219,-80 219,4 -4,4"/>
<!-- r0 -->
<g id="node1" class="node">
<title>r0</title>
<polygon fill="none" stroke="black" stroke-dasharray="5,2" points="23,-76 0,-76 0,-58 23,-58 23,-76"/>
<text text-anchor="middle" x="11.5" y="-64.8" font-family="serif" font-size="9.00">0</text>
</g>
<!-- s0 -->
<g id="node6" class="node">
<title>s0</title>
<polygon fill="gray" stroke="black" stroke-dasharray="5,2" points="23,-20 0,-20 0,-2 23,-2 23,-20"/>
<text text-anchor="middle" x="11.5" y="-8.8" font-family="serif" font-size="9.00">0</text>
</g>
<!-- r0&#45;&gt;s0 -->
<g id="edge2" class="edge">
<title>r0&#45;&gt;s0</title>
<path fill="none" stroke="black" d="M11.5,-57.56C11.5,-48.95 11.5,-35.46 11.5,-25.39"/>
<polygon fill="black" stroke="black" points="11.5,-20.2 13.75,-25.2 11.5,-22.7 11.5,-25.2 11.5,-25.2 11.5,-25.2 11.5,-22.7 9.25,-25.2 11.5,-20.2 11.5,-20.2"/>
</g>
<!-- r1 -->
<g id="node2" class="node">
<title>r1</title>
<polygon fill="none" stroke="black" stroke-dasharray="5,2" points="64,-76 41,-76 41,-58 64,-58 64,-76"/>
<text text-anchor="middle" x="52.5" y="-64.8" font-family="serif" font-size="9.00">1</text>
</g>
<!-- s1 -->
<g id="node7" class="node">
<title>s1</title>
<polygon fill="gray" stroke="black" stroke-dasharray="5,2" points="64,-20 41,-20 41,-2 64,-2 64,-20"/>
<text text-anchor="middle" x="52.5" y="-8.8" font-family="serif" font-size="9.00">1</text>
</g>
<!-- r1&#45;&gt;s1 -->
<g id="edge3" class="edge">
<title>r1&#45;&gt;s1</title>
<path fill="none" stroke="black" d="M52.5,-57.56C52.5,-48.95 52.5,-35.46 52.5,-25.39"/>
<polygon fill="black" stroke="black" points="52.5,-20.2 54.75,-25.2 52.5,-22.7 52.5,-25.2 52.5,-25.2 52.5,-25.2 52.5,-22.7 50.25,-25.2 52.5,-20.2 52.5,-20.2"/>
</g>
<!-- r2 -->
<g id="node3" class="node">
<title>r2</title>
<polygon fill="none" stroke="black" stroke-dasharray="5,2" points="146,-76 123,-76 123,-58 146,-58 146,-76"/>
<text text-anchor="middle" x="134.5" y="-64.8" font-family="serif" font-size="9.00">2</text>
</g>
<!-- v0 -->
<g id="v0_Agent" class="node">
<title>v0</title>
<ellipse fill="none" stroke="black" cx="107.5" cy="-11" rx="25" ry="11"/>
<text text-anchor="middle" x="107.5" y="-8.8" font-family="sans-serif" font-size="9.00">Agent</text>
</g>
<!-- r2&#45;&gt;v0 -->
<g id="edge1" class="edge">
<title>r2&#45;&gt;v0</title>
<path fill="none" stroke="black" d="M130.28,-57.56C126.15,-49.3 119.78,-36.55 114.82,-26.64"/>
<polygon fill="black" stroke="black" points="112.52,-22.03 116.76,-25.5 113.63,-24.27 114.75,-26.5 114.75,-26.5 114.75,-26.5 113.63,-24.27 112.74,-27.51 112.52,-22.03 112.52,-22.03"/>
</g>
<!-- s2 -->
<g id="node8" class="node">
<title>s2</title>
<polygon fill="gray" stroke="black" stroke-dasharray="5,2" points="174,-20 151,-20 151,-2 174,-2 174,-20"/>
<text text-anchor="middle" x="162.5" y="-8.8" font-family="serif" font-size="9.00">2</text>
</g>
<!-- r2&#45;&gt;s2 -->
<g id="edge4" class="edge">
<title>r2&#45;&gt;s2</title>
<path fill="none" stroke="black" d="M138.88,-57.56C143.42,-48.79 150.59,-34.96 155.84,-24.84"/>
<polygon fill="black" stroke="black" points="158.25,-20.2 157.94,-25.68 157.1,-22.42 155.95,-24.64 155.95,-24.64 155.95,-24.64 157.1,-22.42 153.95,-23.6 158.25,-20.2 158.25,-20.2"/>
</g>
<!-- r3 -->
<g id="node4" class="node">
<title>r3</title>
<polygon fill="none" stroke="black" stroke-dasharray="5,2" points="215,-76 192,-76 192,-58 215,-58 215,-76"/>
<text text-anchor="middle" x="203.5" y="-64.8" font-family="serif" font-size="9.00">3</text>
</g>
<!-- s3 -->
<g id="node9" class="node">
<title>s3</title>
<polygon fill="gray" stroke="black" stroke-dasharray="5,2" points="215,-20 192,-20 192,-2 215,-2 215,-20"/>
<text text-anchor="middle" x="203.5" y="-8.8" font-family="serif" font-size="9.00">3</text>
</g>
<!-- r3&#45;&gt;s3 -->
<g id="edge5" class="edge">
<title>r3&#45;&gt;s3</title>
<path fill="none" stroke="black" d="M203.5,-57.56C203.5,-48.95 203.5,-35.46 203.5,-25.39"/>
<polygon fill="black" stroke="black" points="203.5,-20.2 205.75,-25.2 203.5,-22.7 203.5,-25.2 203.5,-25.2 203.5,-25.2 203.5,-22.7 201.25,-25.2 203.5,-20.2 203.5,-20.2"/>
</g>
</g>
</svg>
